<svg xmlns="http://www.w3.org/2000/svg" width="104.662" height="104.695" viewBox="0 0 104.662 104.695">
  <g id="Icon_ionic-ios-quote" data-name="Icon ionic-ios-quote" transform="translate(-6.75 -6.75)">
    <path id="Path_11" data-name="Path 11" d="M43.709,6.75H22.449a15.746,15.746,0,0,0-15.7,15.7V64.314a15.746,15.746,0,0,0,15.7,15.7H35.107a2.632,2.632,0,0,1,2.617,2.813,39.894,39.894,0,0,1-10.237,24.236,2.618,2.618,0,0,0,1.93,4.383h13.05a2.541,2.541,0,0,0,2.061-1.014c2.42-3.14,9.321-13.606,9.321-30.712v-62.8A9.914,9.914,0,0,0,43.709,6.75Z" fill="#ffd403"/>
    <path id="Path_12" data-name="Path 12" d="M56.084,6.75H34.824a15.746,15.746,0,0,0-15.7,15.7V64.314a15.746,15.746,0,0,0,15.7,15.7H47.482A2.632,2.632,0,0,1,50.1,82.827a39.894,39.894,0,0,1-10.237,24.236,2.618,2.618,0,0,0,1.93,4.383h13.05a2.541,2.541,0,0,0,2.061-1.014c2.42-3.14,9.321-13.606,9.321-30.712v-62.8A9.914,9.914,0,0,0,56.084,6.75Z" transform="translate(45.189)" fill="#ffd403"/>
  </g>
</svg>
