<svg xmlns="http://www.w3.org/2000/svg" width="1916" height="110" viewBox="0 0 1916 110">
  <g id="Group_540" data-name="Group 540" transform="translate(-78 -77)" opacity="0.13">
    <rect id="Rectangle_764" data-name="Rectangle 764" width="55" height="68" transform="translate(78 187) rotate(-90)" fill="#dc2015"/>
    <rect id="Rectangle_765" data-name="Rectangle 765" width="55" height="68" transform="translate(78 132) rotate(-90)" fill="#f7f7f7"/>
    <rect id="Rectangle_766" data-name="Rectangle 766" width="55" height="69" transform="translate(146 187) rotate(-90)" fill="#f7f7f7"/>
    <rect id="Rectangle_767" data-name="Rectangle 767" width="55" height="69" transform="translate(146 132) rotate(-90)" fill="#dc2015"/>
    <rect id="Rectangle_768" data-name="Rectangle 768" width="55" height="68" transform="translate(215 187) rotate(-90)" fill="#dc2015"/>
    <rect id="Rectangle_769" data-name="Rectangle 769" width="55" height="68" transform="translate(215 132) rotate(-90)" fill="#f7f7f7"/>
    <rect id="Rectangle_770" data-name="Rectangle 770" width="55" height="69" transform="translate(283 187) rotate(-90)" fill="#f7f7f7"/>
    <rect id="Rectangle_771" data-name="Rectangle 771" width="55" height="69" transform="translate(283 132) rotate(-90)" fill="#dc2015"/>
    <rect id="Rectangle_772" data-name="Rectangle 772" width="55" height="68" transform="translate(352 187) rotate(-90)" fill="#dc2015"/>
    <rect id="Rectangle_773" data-name="Rectangle 773" width="55" height="68" transform="translate(352 132) rotate(-90)" fill="#f7f7f7"/>
    <rect id="Rectangle_774" data-name="Rectangle 774" width="55" height="68" transform="translate(420 187) rotate(-90)" fill="#f7f7f7"/>
    <rect id="Rectangle_775" data-name="Rectangle 775" width="55" height="68" transform="translate(420 132) rotate(-90)" fill="#dc2015"/>
    <rect id="Rectangle_776" data-name="Rectangle 776" width="55" height="69" transform="translate(488 187) rotate(-90)" fill="#dc2015"/>
    <rect id="Rectangle_777" data-name="Rectangle 777" width="55" height="69" transform="translate(488 132) rotate(-90)" fill="#f7f7f7"/>
    <rect id="Rectangle_778" data-name="Rectangle 778" width="55" height="68" transform="translate(557 187) rotate(-90)" fill="#f7f7f7"/>
    <rect id="Rectangle_779" data-name="Rectangle 779" width="55" height="68" transform="translate(557 132) rotate(-90)" fill="#dc2015"/>
    <rect id="Rectangle_780" data-name="Rectangle 780" width="55" height="69" transform="translate(625 187) rotate(-90)" fill="#dc2015"/>
    <rect id="Rectangle_781" data-name="Rectangle 781" width="55" height="69" transform="translate(625 132) rotate(-90)" fill="#f7f7f7"/>
    <rect id="Rectangle_782" data-name="Rectangle 782" width="55" height="68" transform="translate(694 187) rotate(-90)" fill="#f7f7f7"/>
    <rect id="Rectangle_783" data-name="Rectangle 783" width="55" height="68" transform="translate(694 132) rotate(-90)" fill="#dc2015"/>
    <rect id="Rectangle_784" data-name="Rectangle 784" width="55" height="69" transform="translate(762 187) rotate(-90)" fill="#dc2015"/>
    <rect id="Rectangle_785" data-name="Rectangle 785" width="55" height="69" transform="translate(762 132) rotate(-90)" fill="#f7f7f7"/>
    <rect id="Rectangle_786" data-name="Rectangle 786" width="55" height="68" transform="translate(831 187) rotate(-90)" fill="#f7f7f7"/>
    <rect id="Rectangle_787" data-name="Rectangle 787" width="55" height="68" transform="translate(831 132) rotate(-90)" fill="#dc2015"/>
    <rect id="Rectangle_788" data-name="Rectangle 788" width="55" height="68" transform="translate(899 187) rotate(-90)" fill="#dc2015"/>
    <rect id="Rectangle_789" data-name="Rectangle 789" width="55" height="68" transform="translate(899 132) rotate(-90)" fill="#f7f7f7"/>
    <rect id="Rectangle_790" data-name="Rectangle 790" width="55" height="69" transform="translate(967 187) rotate(-90)" fill="#f7f7f7"/>
    <rect id="Rectangle_791" data-name="Rectangle 791" width="55" height="69" transform="translate(967 132) rotate(-90)" fill="#dc2015"/>
    <rect id="Rectangle_792" data-name="Rectangle 792" width="55" height="68" transform="translate(1036 187) rotate(-90)" fill="#dc2015"/>
    <rect id="Rectangle_793" data-name="Rectangle 793" width="55" height="68" transform="translate(1036 132) rotate(-90)" fill="#f7f7f7"/>
    <rect id="Rectangle_794" data-name="Rectangle 794" width="55" height="69" transform="translate(1104 187) rotate(-90)" fill="#f7f7f7"/>
    <rect id="Rectangle_795" data-name="Rectangle 795" width="55" height="69" transform="translate(1104 132) rotate(-90)" fill="#dc2015"/>
    <rect id="Rectangle_796" data-name="Rectangle 796" width="55" height="68" transform="translate(1173 187) rotate(-90)" fill="#dc2015"/>
    <rect id="Rectangle_797" data-name="Rectangle 797" width="55" height="68" transform="translate(1173 132) rotate(-90)" fill="#f7f7f7"/>
    <rect id="Rectangle_798" data-name="Rectangle 798" width="55" height="68" transform="translate(1241 187) rotate(-90)" fill="#f7f7f7"/>
    <rect id="Rectangle_799" data-name="Rectangle 799" width="55" height="68" transform="translate(1241 132) rotate(-90)" fill="#dc2015"/>
    <rect id="Rectangle_800" data-name="Rectangle 800" width="55" height="69" transform="translate(1309 187) rotate(-90)" fill="#dc2015"/>
    <rect id="Rectangle_801" data-name="Rectangle 801" width="55" height="69" transform="translate(1309 132) rotate(-90)" fill="#f7f7f7"/>
    <rect id="Rectangle_802" data-name="Rectangle 802" width="55" height="68" transform="translate(1378 187) rotate(-90)" fill="#f7f7f7"/>
    <rect id="Rectangle_803" data-name="Rectangle 803" width="55" height="68" transform="translate(1378 132) rotate(-90)" fill="#dc2015"/>
    <rect id="Rectangle_804" data-name="Rectangle 804" width="55" height="69" transform="translate(1446 187) rotate(-90)" fill="#dc2015"/>
    <rect id="Rectangle_805" data-name="Rectangle 805" width="55" height="69" transform="translate(1446 132) rotate(-90)" fill="#f7f7f7"/>
    <rect id="Rectangle_806" data-name="Rectangle 806" width="55" height="68" transform="translate(1515 187) rotate(-90)" fill="#f7f7f7"/>
    <rect id="Rectangle_807" data-name="Rectangle 807" width="55" height="68" transform="translate(1515 132) rotate(-90)" fill="#dc2015"/>
    <rect id="Rectangle_808" data-name="Rectangle 808" width="55" height="69" transform="translate(1583 187) rotate(-90)" fill="#dc2015"/>
    <rect id="Rectangle_809" data-name="Rectangle 809" width="55" height="69" transform="translate(1583 132) rotate(-90)" fill="#f7f7f7"/>
    <rect id="Rectangle_810" data-name="Rectangle 810" width="55" height="68" transform="translate(1652 187) rotate(-90)" fill="#f7f7f7"/>
    <rect id="Rectangle_811" data-name="Rectangle 811" width="55" height="68" transform="translate(1652 132) rotate(-90)" fill="#dc2015"/>
    <rect id="Rectangle_812" data-name="Rectangle 812" width="55" height="68" transform="translate(1720 187) rotate(-90)" fill="#dc2015"/>
    <rect id="Rectangle_813" data-name="Rectangle 813" width="55" height="68" transform="translate(1720 132) rotate(-90)" fill="#f7f7f7"/>
    <rect id="Rectangle_814" data-name="Rectangle 814" width="55" height="69" transform="translate(1788 187) rotate(-90)" fill="#f7f7f7"/>
    <rect id="Rectangle_815" data-name="Rectangle 815" width="55" height="69" transform="translate(1788 132) rotate(-90)" fill="#dc2015"/>
    <rect id="Rectangle_816" data-name="Rectangle 816" width="55" height="68" transform="translate(1857 187) rotate(-90)" fill="#dc2015"/>
    <rect id="Rectangle_817" data-name="Rectangle 817" width="55" height="68" transform="translate(1857 132) rotate(-90)" fill="#f7f7f7"/>
    <rect id="Rectangle_818" data-name="Rectangle 818" width="55" height="69" transform="translate(1925 187) rotate(-90)" fill="#f7f7f7"/>
    <rect id="Rectangle_819" data-name="Rectangle 819" width="55" height="69" transform="translate(1925 132) rotate(-90)" fill="#dc2015"/>
  </g>
</svg>
