<svg xmlns="http://www.w3.org/2000/svg" width="44.776" height="30.225" viewBox="0 0 44.776 30.225">
  <path id="Icon_zocial-email" data-name="Icon zocial-email" d="M.072,31.616V6.745q0-.043.13-.82L14.839,18.446.245,32.479a3.659,3.659,0,0,1-.173-.864ZM2.015,4.2a1.861,1.861,0,0,1,.734-.13H42.171a2.445,2.445,0,0,1,.777.13L28.267,16.762l-1.943,1.554-3.843,3.152-3.843-3.152L16.7,16.762Zm.043,29.966L16.782,20.044l5.7,4.62,5.7-4.62L42.9,34.163a2.073,2.073,0,0,1-.734.13H2.749a1.956,1.956,0,0,1-.691-.13ZM30.124,18.446,44.718,5.925a2.577,2.577,0,0,1,.13.82V31.616a3.309,3.309,0,0,1-.13.864Z" transform="translate(-0.072 -4.068)" fill="#bb1c2e"/>
</svg>
