<svg xmlns="http://www.w3.org/2000/svg" width="107" height="95" viewBox="0 0 107 95">
  <g id="Group_1" data-name="Group 1" transform="translate(-134 -90)">
    <g id="Rectangle_1155" data-name="Rectangle 1155" transform="translate(134 90)" fill="none" stroke="#fff" stroke-width="2">
      <path d="M0,0H96a11,11,0,0,1,11,11V84A11,11,0,0,1,96,95H11A11,11,0,0,1,0,84V0A0,0,0,0,1,0,0Z" stroke="none"/>
      <path d="M2,1H96a10,10,0,0,1,10,10V84A10,10,0,0,1,96,94H11A10,10,0,0,1,1,84V2A1,1,0,0,1,2,1Z" fill="none"/>
    </g>
    <path id="Icon_awesome-instagram" data-name="Icon awesome-instagram" d="M24.833,14.337A12.734,12.734,0,1,0,37.564,27.071,12.712,12.712,0,0,0,24.833,14.337Zm0,21.012a8.279,8.279,0,1,1,8.277-8.279A8.293,8.293,0,0,1,24.833,35.349ZM41.055,13.816a2.969,2.969,0,1,1-2.969-2.97A2.963,2.963,0,0,1,41.055,13.816Zm8.432,3.014c-.188-3.979-1.1-7.5-4.011-10.406s-6.426-3.812-10.4-4.012c-4.1-.233-16.387-.233-20.487,0-3.967.188-7.49,1.1-10.4,4S.369,12.841.169,16.819c-.233,4.1-.233,16.391,0,20.492.188,3.979,1.1,7.5,4.011,10.406s6.426,3.812,10.4,4.012c4.1.233,16.387.233,20.487,0,3.978-.188,7.5-1.1,10.4-4.012s3.812-6.428,4.011-10.406C49.719,33.21,49.719,20.931,49.486,16.831Zm-5.3,24.88a8.381,8.381,0,0,1-4.72,4.721c-3.269,1.3-11.025,1-14.637,1s-11.379.288-14.637-1a8.381,8.381,0,0,1-4.72-4.721c-1.3-3.269-1-11.027-1-14.64s-.288-11.382,1-14.64A8.38,8.38,0,0,1,10.2,7.71c3.269-1.3,11.025-1,14.637-1s11.379-.288,14.637,1a8.38,8.38,0,0,1,4.72,4.721c1.3,3.269,1,11.027,1,14.64S45.487,38.452,44.19,41.711Z" transform="translate(163.508 111.054)" fill="#fff"/>
  </g>
</svg>
