<svg xmlns="http://www.w3.org/2000/svg" width="27.71" height="44.336" viewBox="0 0 27.71 44.336">
  <path id="Icon_metro-location" data-name="Icon metro-location" d="M22.21,1.928A13.855,13.855,0,0,0,8.355,15.783c0,13.855,13.855,30.481,13.855,30.481S36.064,29.638,36.064,15.783A13.855,13.855,0,0,0,22.21,1.928Zm0,22.341A8.486,8.486,0,1,1,30.7,15.783,8.486,8.486,0,0,1,22.21,24.269Zm-5.369-8.486a5.369,5.369,0,1,1,5.369,5.369A5.369,5.369,0,0,1,16.841,15.783Z" transform="translate(-8.355 -1.928)" fill="#fff"/>
</svg>
