<svg xmlns="http://www.w3.org/2000/svg" width="90.625" height="103.572" viewBox="0 0 90.625 103.572">
  <g id="Group_1" data-name="Group 1" transform="translate(-142.187 -85.714)">
    <path id="Icon_awesome-building" data-name="Icon awesome-building" d="M88.2,97.1H84.152V4.855A4.855,4.855,0,0,0,79.3,0H11.328A4.855,4.855,0,0,0,6.473,4.855V97.1H2.427A2.428,2.428,0,0,0,0,99.526v4.046H90.625V99.526A2.428,2.428,0,0,0,88.2,97.1Zm-62.3-81.724a2.428,2.428,0,0,1,2.427-2.427h8.092a2.428,2.428,0,0,1,2.427,2.427v8.092a2.428,2.428,0,0,1-2.427,2.427H28.32a2.428,2.428,0,0,1-2.427-2.427Zm0,19.42a2.428,2.428,0,0,1,2.427-2.427h8.092a2.428,2.428,0,0,1,2.427,2.427v8.092a2.428,2.428,0,0,1-2.427,2.427H28.32a2.428,2.428,0,0,1-2.427-2.427ZM36.412,64.732H28.32A2.428,2.428,0,0,1,25.893,62.3V54.213a2.428,2.428,0,0,1,2.427-2.427h8.092a2.428,2.428,0,0,1,2.427,2.427V62.3A2.428,2.428,0,0,1,36.412,64.732ZM51.786,97.1H38.839V80.106a2.428,2.428,0,0,1,2.427-2.427h8.092a2.428,2.428,0,0,1,2.427,2.427ZM64.732,62.3A2.428,2.428,0,0,1,62.3,64.732H54.213A2.428,2.428,0,0,1,51.786,62.3V54.213a2.428,2.428,0,0,1,2.427-2.427H62.3a2.428,2.428,0,0,1,2.427,2.427Zm0-19.42A2.428,2.428,0,0,1,62.3,45.313H54.213a2.428,2.428,0,0,1-2.427-2.427V34.794a2.428,2.428,0,0,1,2.427-2.427H62.3a2.428,2.428,0,0,1,2.427,2.427Zm0-19.42A2.428,2.428,0,0,1,62.3,25.893H54.213a2.428,2.428,0,0,1-2.427-2.427V15.374a2.428,2.428,0,0,1,2.427-2.427H62.3a2.428,2.428,0,0,1,2.427,2.427Z" transform="translate(142.187 85.714)" fill="#3c3c3c"/>
  </g>
</svg>
