<svg xmlns="http://www.w3.org/2000/svg" width="232.803" height="232.773" viewBox="0 0 232.803 232.773">
  <g id="Group_572" data-name="Group 572" transform="translate(-73.509 -21.114)">
    <g id="Group_16" data-name="Group 16" transform="translate(152.222 94.105)">
      <path id="Path_980" data-name="Path 980" d="M216.542,304.79a6.326,6.326,0,0,0-2.025-.975c-.375-.075-.75.075-1.125,0-.15-.075-.225-.225-.3-.3-.6,0-1.275.15-1.8.15a4.773,4.773,0,0,1-2.775-.3c-.975-.676-1.275-1.95-1.95-3-1.2-1.95-3.825-.75-5.475-.075-.15.075-.375-.075-.6,0-.975.375-1.875,1.125-2.925,1.2-.375,0-.6.375-.9.451a4.833,4.833,0,0,0-1.7.8c7.273,7.03,17.239,12.452,29.269,12.766A17.834,17.834,0,0,0,216.542,304.79Z" transform="translate(-181.487 -230.514)" fill="#ffde59" stroke="#707070" stroke-width="0.1"/>
      <path id="Path_981" data-name="Path 981" d="M227.613,265.316h-.3c-.075-1.05.375-2.625-.15-3a18.017,18.017,0,0,1-4.951-4.875c-.15-.225-.9-.15-1.35,0a3.006,3.006,0,0,1-1.125.225c.15.375-.451.525-.3.9-.225,0-.45-.075-.6,0v.3h-.3v-.3c-.3-.075-.6.075-.9,0-.975-.45-1.8-1.2-2.925-.9v.3c-.15.075-.45-.075-.6,0v.3c-1.8-.075-3.6.225-5.25-.6-.15-.075-.45.075-.525,0-.525-.6-1.125-1.05-1.8-.75a6.765,6.765,0,0,1-3.225.45v-.3c-1.8.15-2.55-1.425-3.45-2.7-1.05-1.65-2.4-2.925-3.15-4.651-.45-.9-.225-2.1-.525-3.15-.075-.375-.075-1.05-.75-1.2-.225-.075-.45-.075-.525-.225a1.839,1.839,0,0,0-.975-.9v-.3a4.072,4.072,0,0,1-1.575-2.325c-.375-1.875-2.1-2.775-3.675-3.225,0,.225.075.45,0,.6h-.3a12.1,12.1,0,0,0,0,2.326c.075.075.226.15.3.3.075.525.15.975.225,1.425.225,1.725.75,3.3.975,5.025.6-.075.75.676,1.125.75a8.757,8.757,0,0,1,1.5.375h-.3v.3h-.3c-.075.3,0,.675-.225.975-.15.15,0,.525-.075.75h-.3a1.519,1.519,0,0,1-.6,1.425,1.061,1.061,0,0,1-.825.075,7.993,7.993,0,0,1-2.775-2.1c-.6-.675-1.2-.75-1.725-1.425-.075-.075-.375.075-.525,0v-.3c-.675.15-.975-.6-1.125-1.125h-.3a1.219,1.219,0,0,1,.075-.9,4.562,4.562,0,0,0,.225-1.725c.075-.15.225-.225.3-.3a5.053,5.053,0,0,0,0-1.5c-.075-.075-.225-.15-.3-.3-.075-.375.15-.825-.075-1.05-.3-.45-.15-.675-.225-.975h-.3v-.3h-.3v-.3h-.3c-.15-.75-.675-.9-1.05-1.5-.225-.225,0-.75-.075-1.125h-.3a4.013,4.013,0,0,0-1.5-2.925c-.15-.075-.375.075-.525,0v-.3c-.3-.075-.6.075-.9,0v-.3c-.15-.075-.45.075-.6,0-.45-.225-.225-.975-.9-.825a3.218,3.218,0,0,0-.15-.9c-.375-1.2-.075-2.55-.15-3.825h-.226v-.3h-.3v-.3h-.3c-.075-.225.075-.6-.075-.75-.3-.45-.15-.675-.225-.975h-.3v-.3c-.15-.225-.3-.375-.6-.3v-.3h-.3v-.3c-.15-.075-.525.075-.525,0-.375-.6-1.05-.75-1.275-1.05a2.419,2.419,0,0,0-.579-.39,94.408,94.408,0,0,0-1.991,17.265c-.225,7.008,4.64,17.916,13.473,26.453a4.832,4.832,0,0,1,1.7-.8c.3-.075.525-.451.9-.451,1.05-.075,1.95-.825,2.925-1.2.225-.075.45.075.6,0,1.65-.676,4.275-1.876,5.475.075.675,1.05.975,2.325,1.95,3a4.774,4.774,0,0,0,2.775.3c.525,0,1.2-.15,1.8-.15.075.075.15.225.3.3.375.075.75-.075,1.125,0a6.331,6.331,0,0,1,2.025.975,17.834,17.834,0,0,1,7.695,10.716,45.39,45.39,0,0,0,12.595-1.491q1.145-.3,2.235-.631c-.235-.587-.456-1.184-.7-1.769a4.346,4.346,0,0,1,0-3.075c.15-.6-.075-.9.15-1.275h.3c-.075-.45.075-1.05-.225-1.5a2.1,2.1,0,0,1,0-1.65c.375-.676,0-1.05.225-1.5h.3a2.591,2.591,0,0,1,.225-.975C227.763,266.142,227.688,265.692,227.613,265.316Z" transform="translate(-169.682 -195.24)" fill="#ffde59" stroke="#707070" stroke-width="0.1"/>
      <path id="Path_982" data-name="Path 982" d="M250.064,236.676c-.6-.3-1.05-.975-1.725-1.05a5.969,5.969,0,0,1-1.125-.225,14.874,14.874,0,0,0-5.475.075,9.215,9.215,0,0,0-3.075,1.575,2.771,2.771,0,0,1-2.775.6,9.586,9.586,0,0,1-1.875-1.125v-.3c-.75-.525-1.575-.75-2.1-1.725,0-.075-.375.075-.525,0v-.3c-.15-.075-.45.075-.6,0v-.3h-.3v-.3c-.375.15-.45-.525-.825-.3V233h-.3v-.3h-.3v-.3h-.3c-.375-.451-.525-1.05-.9-1.426h-.3v-.3h-.225v-.3c-.375.15-.525-.45-.9-.3v-.3c-.3-.075-.525.075-.975-.225-.225-.225-.675,0-1.05-.075v-.3h-.3a3.862,3.862,0,0,1,.15-.825,6.92,6.92,0,0,1,1.05-2.25.99.99,0,0,1,1.125-.375c.075-.3.45-.375.9-.3v-.3c.6-.225.75-.975.9-1.5a15.52,15.52,0,0,0,1.125-3.75h.3c.075-.3-.075-.675.075-.9.375-.75.075-1.5.225-2.325h.3a1.825,1.825,0,0,0,0-.9h-.3v-.3h-.3c-.075-.15.075-.45,0-.6h-.3a6.258,6.258,0,0,0-.9-1.725.819.819,0,0,0-.6,0c-.15.075-.225.3-.3.3-.6,0-1.125.45-1.725.6-.225,0-.45-.075-.6,0v.3h-.3v.225h-.3c-.15.825-.675,1.275-.6,2.1.075.075-.225.225-.15.3.075.525-.45.675-.375,1.125h-.3c-.075.15.075.45,0,.525a3.8,3.8,0,0,0-1.425,2.1c-.225.9,0,1.725-.15,2.625a1.482,1.482,0,0,1-1.05,1.425c-3,.9-4.95-1.95-6-4.5-.9-2.325-2.7-4.2-3.6-6.6a5.788,5.788,0,0,1-.075-2.551c.075-.075.3-.225.225-.3a1.415,1.415,0,0,1,.45-1.125c.375-.375,1.05-.3,1.65-.6a.955.955,0,0,1,.9,0c.825.45,1.2,1.575,2.025,1.95,1.05.45,2.475-.15,2.475-1.125-.075-1.425-.6-3.375,1.05-4.05v-.3a9.124,9.124,0,0,1,2.025,0v.3c.675,0,1.125.6,1.8.525.075,0,.15.225.3.3a1.852,1.852,0,0,0,1.65-.375c.45-.3.675-.3.9-.75.3-.75.975-1.275.6-2.1-.3-.825-.975-1.5-1.35-2.325-.225-.45,0-.9-.375-1.425-.075-.15.075-.45,0-.6a.849.849,0,0,1-.3-.9h-.3c-.225-.45-.15-.9-.525-1.425a.826.826,0,0,1,0-.6c.225-.15.15-.525.375-.825.9-1.2,1.575-2.55,3.075-2.925.375-.075.75-.225,1.2-.3.15-.075.375.15.6.225.375.075.75-.075,1.125,0,.15.075.15.225.3.3.525.15.9-.15,1.575.225a2.328,2.328,0,0,0,1.875,0,8.157,8.157,0,0,0,1.2-.9,12.524,12.524,0,0,1,1.8-1.35v-.3h.3v-.3h.3v-.3h.3c.15-.9-.075-1.651.15-2.625.451-1.8-.075-3.6.9-5.325.225-.375,0-.9.075-1.425h.3a18.606,18.606,0,0,0-.065-1.916,46.486,46.486,0,0,0-17.462-7.424c-16.086-3.217-34.008,4.572-43.286,15.209-2.286,2.62-4.076,7.006-5.321,12.567a2.416,2.416,0,0,1,.579.39c.225.3.9.45,1.275,1.05,0,.075.375-.075.525,0v.3h.3v.3c.3-.075.45.075.6.3v.3h.3c.075.3-.075.525.225.975.15.15,0,.525.075.75h.3v.3h.3v.3h.226c.075,1.275-.226,2.625.15,3.825a3.218,3.218,0,0,1,.15.9c.675-.15.45.6.9.825.15.075.451-.075.6,0v.3c.3.075.6-.075.9,0v.3c.15.075.375-.075.525,0a4.013,4.013,0,0,1,1.5,2.925h.3c.075.375-.15.9.075,1.125.375.6.9.75,1.05,1.5h.3v.3h.3v.3h.3c.075.3-.075.525.225.975.225.225,0,.675.075,1.05.075.15.225.225.3.3a5.053,5.053,0,0,1,0,1.5c-.075.075-.225.15-.3.3a4.563,4.563,0,0,1-.225,1.725,1.219,1.219,0,0,0-.075.9h.3c.15.525.45,1.275,1.125,1.125v.3c.15.075.45-.075.525,0,.525.675,1.125.75,1.725,1.425a7.994,7.994,0,0,0,2.775,2.1,1.061,1.061,0,0,0,.825-.075,1.519,1.519,0,0,0,.6-1.425h.3c.075-.225-.075-.6.075-.75.225-.3.15-.675.225-.975h.3v-.3h.3a8.76,8.76,0,0,0-1.5-.375c-.375-.075-.525-.825-1.125-.75-.225-1.725-.75-3.3-.975-5.025-.075-.45-.15-.9-.225-1.425-.075-.15-.225-.225-.3-.3a12.1,12.1,0,0,1,0-2.325h.3c.075-.15,0-.375,0-.6,1.575.45,3.3,1.35,3.675,3.225a4.072,4.072,0,0,0,1.575,2.325v.3a1.838,1.838,0,0,1,.975.9c.075.15.3.15.525.225.675.15.675.825.75,1.2.3,1.05.075,2.25.525,3.15.75,1.725,2.1,3,3.15,4.651.9,1.275,1.65,2.85,3.45,2.7v.3a6.766,6.766,0,0,0,3.225-.451c.675-.3,1.275.15,1.8.75.075.075.375-.075.525,0,1.65.825,3.45.525,5.25.6V233c.15-.075.45.075.6,0v-.3c1.125-.3,1.95.45,2.925.9.3.075.6-.075.9,0v.3h.3v-.3c.15-.075.375,0,.6,0-.15-.375.45-.525.3-.9a3,3,0,0,0,1.125-.225c.45-.15,1.2-.225,1.35,0a18.014,18.014,0,0,0,4.951,4.875c.525.375.075,1.95.15,3h.3c.075.375.15.825-.075,1.05a2.591,2.591,0,0,0-.225.975h-.3c-.225.45.15.825-.225,1.5a2.1,2.1,0,0,0,0,1.65c.3.45.15,1.05.225,1.5h-.3c-.225.375,0,.675-.15,1.275a4.346,4.346,0,0,0,0,3.075c.243.586.463,1.182.7,1.769,10.65-3.257,17.52-9.137,21.8-15.979A2.123,2.123,0,0,0,250.064,236.676Z" transform="translate(-171.432 -170.275)" fill="#ffde59" stroke="#707070" stroke-width="0.1"/>
      <path id="Path_983" data-name="Path 983" d="M287.233,204.182a40.774,40.774,0,0,0-15-18.606,18.592,18.592,0,0,1,.065,1.915H272c-.075.525.15,1.05-.075,1.425-.975,1.725-.45,3.525-.9,5.325-.225.975,0,1.725-.15,2.625h-.3v.3h-.3v.3h-.3v.3a12.521,12.521,0,0,0-1.8,1.35,8.168,8.168,0,0,1-1.2.9,2.328,2.328,0,0,1-1.875,0c-.675-.375-1.05-.075-1.575-.225-.15-.075-.15-.225-.3-.3-.375-.075-.75.075-1.125,0-.225-.075-.45-.3-.6-.225-.45.075-.825.225-1.2.3-1.5.375-2.175,1.725-3.075,2.925-.225.3-.15.675-.375.825a.826.826,0,0,0,0,.6c.375.525.3.975.525,1.425h.3a.849.849,0,0,0,.3.9c.075.15-.075.45,0,.6.375.525.15.975.375,1.425.375.825,1.05,1.5,1.35,2.325.375.825-.3,1.35-.6,2.1-.225.45-.45.45-.9.75a1.853,1.853,0,0,1-1.65.375c-.15-.075-.225-.3-.3-.3-.675.075-1.125-.525-1.8-.525v-.3a9.129,9.129,0,0,0-2.025,0v.3c-1.65.675-1.125,2.625-1.05,4.05,0,.975-1.425,1.575-2.475,1.125-.825-.375-1.2-1.5-2.025-1.95a.954.954,0,0,0-.9,0c-.6.3-1.275.225-1.65.6a1.415,1.415,0,0,0-.45,1.125c.075.075-.15.225-.225.3a5.786,5.786,0,0,0,.075,2.55c.9,2.4,2.7,4.275,3.6,6.6,1.05,2.55,3,5.4,6,4.5a1.481,1.481,0,0,0,1.05-1.425c.15-.9-.075-1.725.15-2.625a3.8,3.8,0,0,1,1.425-2.1c.075-.075-.075-.375,0-.525h.3c-.075-.45.45-.6.375-1.125-.075-.075.225-.225.15-.3-.075-.825.45-1.275.6-2.1h.3v-.225h.3v-.3c.15-.075.375,0,.6,0,.6-.15,1.125-.6,1.725-.6.075,0,.15-.225.3-.3a.819.819,0,0,1,.6,0,6.256,6.256,0,0,1,.9,1.725h.3c.075.15-.075.45,0,.6h.3v.3h.3a1.822,1.822,0,0,1,0,.9h-.3c-.15.825.15,1.575-.225,2.325-.15.225,0,.6-.075.9h-.3a15.517,15.517,0,0,1-1.125,3.75c-.15.525-.3,1.275-.9,1.5v.3c-.45-.075-.825,0-.9.3a.99.99,0,0,0-1.125.375,6.919,6.919,0,0,0-1.05,2.25,3.861,3.861,0,0,0-.15.825h.3v.3c.375.075.825-.15,1.05.075.45.3.675.15.975.225v.3c.375-.15.525.45.9.3v.3h.225v.3h.3c.375.375.525.975.9,1.426h.3v.3h.3v.3h.3v.3c.375-.225.451.45.825.3v.3h.3v.3c.15.075.45-.075.6,0v.3c.15.075.525-.075.525,0,.525.975,1.35,1.2,2.1,1.725v.3a9.587,9.587,0,0,0,1.875,1.125,2.771,2.771,0,0,0,2.776-.6,9.214,9.214,0,0,1,3.075-1.575,14.873,14.873,0,0,1,5.475-.075,5.968,5.968,0,0,0,1.125.225c.675.075,1.125.75,1.725,1.05a2.126,2.126,0,0,1,.744.491C292.381,230.162,290.126,211.895,287.233,204.182Zm-5.262,9.036c-.525,1.8-2.7,1.425-4.125,2.175a.889.889,0,0,0-.45,1.275c.675.9,1.275,2.475.15,2.925a3.313,3.313,0,0,1-2.25,0c-.6-.3-1.125-1.05-1.575-1.275-1.275-.675-2.55-1.425-3.75-2.1a2.291,2.291,0,0,0-1.425-.075c-.15.075-.15.225-.3.3a5.958,5.958,0,0,0-.975.225,3.017,3.017,0,0,1-1.65.075v-.3h-.3c-.9-1.2.3-2.1.825-3.225h.3c-.075-.3.15-.375.3-.525h.3v-.3c.525.225.825-.45,1.125-.225a3.409,3.409,0,0,0,1.575.9,3.512,3.512,0,0,0,2.625-.9,3.887,3.887,0,0,1,1.125-.45c.225,0,.375-.375.6-.525.15-.075.375.075.525,0a4.793,4.793,0,0,1,1.575-.618,13.321,13.321,0,0,1,1.2,1.443c.075.15.525.15.75.075v-.3h.3c.375-.45.375-.675.9-.825a1.486,1.486,0,0,1,1.65.3c.45.3.75.45.9.825.075.45.3.675.375,1.125Z" transform="translate(-204.164 -177.419)" fill="#ffde59" stroke="#707070" stroke-width="0.1"/>
      <path id="Path_984" data-name="Path 984" d="M299.786,233.16a1.486,1.486,0,0,0-1.65-.3c-.525.15-.525.375-.9.825h-.3v.3c-.225.075-.675.075-.75-.075a13.326,13.326,0,0,0-1.2-1.443,4.794,4.794,0,0,0-1.575.618c-.15.075-.375-.075-.525,0-.225.15-.375.525-.6.525a3.887,3.887,0,0,0-1.125.45,3.512,3.512,0,0,1-2.625.9,3.408,3.408,0,0,1-1.575-.9c-.3-.225-.6.45-1.125.225v.3h-.3c-.15.15-.375.225-.3.525h-.3c-.525,1.125-1.725,2.025-.825,3.225h.3v.3a3.016,3.016,0,0,0,1.65-.075,5.965,5.965,0,0,1,.975-.225c.15-.075.15-.225.3-.3a2.291,2.291,0,0,1,1.425.075c1.2.675,2.475,1.425,3.75,2.1.45.225.975.975,1.575,1.275a3.313,3.313,0,0,0,2.25,0c1.125-.45.525-2.025-.15-2.925a.889.889,0,0,1,.45-1.275c1.425-.75,3.6-.375,4.125-2.175h.3c-.075-.45-.3-.675-.375-1.125C300.536,233.61,300.236,233.46,299.786,233.16Z" transform="translate(-222.953 -199.311)" fill="#ffde59" stroke="#707070" stroke-width="0.1"/>
    </g>
    <path id="Path_104" data-name="Path 104" d="M250.612,210.543a10.662,10.662,0,0,0-5.842-4.367,9.641,9.641,0,0,0-7.428,1.244,19.393,19.393,0,0,0-5.786,5.648,35.933,35.933,0,0,0-3.52,6.294c-.7-1.143-1.441-2.263-2.207-3.359a20.822,20.822,0,0,0-6.307-6.339,10.323,10.323,0,0,0-8.212-1.23,9.706,9.706,0,0,0-5.434,4.791c-2.934,5.511-.871,11.9,1.839,17.051a48.855,48.855,0,0,0,23.5,21.824q.912.4,1.838.756a.249.249,0,0,0,.261-.032.265.265,0,0,0,.366.049,44.025,44.025,0,0,0,18.141-25.422C253.243,222,253.981,215.452,250.612,210.543Z" transform="translate(-33.69 -92.797)" fill="#bb1c2e"/>
    <g id="Group_17" data-name="Group 17" transform="translate(229.804 61.956)">
      <path id="Path_998" data-name="Path 998" d="M347.716,38.237c-.347.2-4.225,8.985-5.913,11.936a56.115,56.115,0,0,1-3.818,5.693s-3.948,8.369-5.893,7.639-.835-3.351-.387-4.984,2.57-6.513,2.57-6.513-9.536,7.721-11.238,9.3-5.008,4.111-6.3,2.915,7.933-11.344,7.933-11.344l2.117-2.735-.56-.447s-6.529,6.011-9.307,8.662-5.106,3.67-6.142,2.117,12.534-14.019,12.534-14.019-12.706,8.606-14.6,6.623S322.2,42.348,322.2,42.348s-9.741,2.787-9.968.774,12.536-6.214,12.536-6.214,15.162-7.249,16.334-7.61,18.028-14.1,18.028-14.1l9.722,8.443Z" transform="translate(-308.551 -15.2)" fill="#ffde59"/>
      <g id="Group_453" data-name="Group 453" transform="translate(0.961 26.192)">
        <path id="Path_999" data-name="Path 999" d="M338.081,190.2a6.04,6.04,0,0,0-.856,1.2c-.178.333-.47.836-.129,1.166.313.3.818.116,1.149-.047a5.24,5.24,0,0,0,1.23-.942.211.211,0,0,0,.1-.364q-.589-.508-1.181-1.014A.227.227,0,0,0,338.081,190.2Zm-.6,1.723-.055.044c.012-.031.026-.063.041-.1A.24.24,0,0,0,337.48,191.925Z" transform="translate(-328.883 -170.28)" fill="#ffde59"/>
        <path id="Path_1000" data-name="Path 1000" d="M319.667,178.7a10.724,10.724,0,0,0-1.12,1.446,1.159,1.159,0,0,0-.051,1.376c.366.436.98.214,1.419.031a3.964,3.964,0,0,0,1.441-1.035.22.22,0,0,0-.051-.346.2.2,0,0,0-.048-.236l-1.274-1.237A.226.226,0,0,0,319.667,178.7Zm.147.51.024-.028.059.057A.231.231,0,0,0,319.814,179.21Z" transform="translate(-316.157 -162.431)" fill="#ffde59"/>
        <path id="Path_1001" data-name="Path 1001" d="M313.207,156.535a8,8,0,0,0-1.189.936,1.035,1.035,0,0,0-.412,1c.14.457.658.342,1.018.275a4.538,4.538,0,0,0,1.369-.5.223.223,0,0,0,.076-.067h0a.225.225,0,0,0,.139-.327q-.324-.63-.7-1.231A.226.226,0,0,0,313.207,156.535Z" transform="translate(-311.577 -147.329)" fill="#ffde59"/>
        <path id="Path_1002" data-name="Path 1002" d="M382.069,185.324a1.832,1.832,0,0,0-.279.82,3.635,3.635,0,0,0-.2.946c-.144.374-.186.812.2,1.048.338.385,1.008.056,1.292-.271a5.587,5.587,0,0,0,.956-1.868.224.224,0,0,0-.1-.253c-.344-.145-.691-.281-1.044-.4C382.641,185.263,382.28,185.074,382.069,185.324Z" transform="translate(-359.281 -166.909)" fill="#ffde59"/>
        <path id="Path_1003" data-name="Path 1003" d="M324.543,127.953l-.5.308a2.367,2.367,0,0,0-.345.228q-.306.137-.6.3a.228.228,0,0,0,.065.414.463.463,0,0,0,.427.353,3.379,3.379,0,0,0,1.054-.194c.191-.033.381-.07.572-.1a.187.187,0,0,0,.153-.122c.15-.054.295-.122.3-.3a2.492,2.492,0,0,0-.09-.513,1.554,1.554,0,0,0-.14-.577C325.208,127.408,324.771,127.812,324.543,127.953Z" transform="translate(-319.366 -127.615)" fill="#ffde59"/>
      </g>
    </g>
    <g id="Group_18" data-name="Group 18" transform="translate(239.562 122.296)">
      <path id="Path_1034" data-name="Path 1034" d="M39.025,27.449c-.355-.186-9.809,1.322-13.2,1.5a55.718,55.718,0,0,1-6.844-.127S9.843,30.044,9.377,28s2.329-2.529,3.935-3.039S20.15,23.59,20.15,23.59,8.464,19.737,6.209,19.16.025,17.167.308,15.424s13.818.528,13.818.528l3.445.3.063-.716s-8.6-2.244-12.343-3.147S-.581,10.073.139,8.353,18.721,11.31,18.721,11.31,4.55,5.262,5.156,2.583,21.528,8.132,21.528,8.132s-7.693-6.711-6.142-8S27.473,7.34,27.473,7.34,41.869,16.2,42.816,17s21.443,8.023,21.443,8.023l-1.8,12.936Z" transform="matrix(0.998, -0.07, 0.07, 0.998, 0, 4.482)" fill="#ffde59"/>
      <g id="Group_464" data-name="Group 464" transform="matrix(0.998, -0.07, 0.07, 0.998, 0.445, 5.14)">
        <path id="Path_987" data-name="Path 987" d="M2.487.079A5.935,5.935,0,0,0,1.039.021C.669.053.1.083.01.541c-.08.42.344.736.656.921A5.15,5.15,0,0,0,2.1,1.967a.208.208,0,0,0,.354-.111q.1-.758.2-1.517A.223.223,0,0,0,2.487.079ZM.746.51.68.489C.712.482.746.476.781.471A.221.221,0,0,0,.746.51Z" transform="translate(0.549 14.523)" fill="#ffde59"/>
        <path id="Path_988" data-name="Path 988" d="M2.984.145A10.517,10.517,0,0,0,1.191,0,1.139,1.139,0,0,0,.031.7c-.162.536.35.921.737,1.185a3.894,3.894,0,0,0,1.627.63.216.216,0,0,0,.257-.228.2.2,0,0,0,.169-.166L3.154.405A.222.222,0,0,0,2.984.145Zm-.34.4.036,0-.016.08A.23.23,0,0,0,2.643.54Z" transform="translate(0 7.811)" fill="#ffde59"/>
        <path id="Path_989" data-name="Path 989" d="M2.566.529A7.878,7.878,0,0,0,1.156.054a1.017,1.017,0,0,0-1.044.2c-.3.361.073.726.321.986a4.469,4.469,0,0,0,1.148.857.222.222,0,0,0,.1.027l0,0a.222.222,0,0,0,.344-.061q.344-.606.636-1.238A.222.222,0,0,0,2.566.529Z" transform="translate(5.221 2.082)" fill="#ffde59"/>
        <path id="Path_990" data-name="Path 990" d="M2.486,0a1.8,1.8,0,0,0-.825.211A3.585,3.585,0,0,0,.774.559C.388.642.006.843.019,1.288c-.135.485.5.86.918.918a5.5,5.5,0,0,0,2.052-.218.22.22,0,0,0,.152-.221C3.075,1.405,3,1.047,2.908.691,2.844.443,2.806.044,2.486,0Z" transform="translate(9.1 24.971)" fill="#ffde59"/>
        <path id="Path_991" data-name="Path 991" d="M1.894.761,1.372.516A2.3,2.3,0,0,0,1,.355,6.517,6.517,0,0,0,.428.026.224.224,0,0,0,.122.3.456.456,0,0,0,.061.842,3.32,3.32,0,0,0,.788,1.6c.13.14.263.276.393.415a.184.184,0,0,0,.182.061c.125.094.259.176.412.085a2.475,2.475,0,0,0,.374-.35c.129-.124.33-.256.4-.426C2.7,1.015,2.134.873,1.894.761Z" transform="translate(15.098 0)" fill="#ffde59"/>
      </g>
    </g>
    <g id="Group_19" data-name="Group 19" transform="translate(225.74 167.598) rotate(-1)">
      <path id="Path_992" data-name="Path 992" d="M23.85,39.806c-.169-.358-8.555-4.836-11.342-6.722a55.5,55.5,0,0,1-5.337-4.193S-.8,24.375.065,22.5s3.366-.582,4.944-.019S11.246,25.5,11.246,25.5s-6.922-10-8.358-11.8S-.8,8.449.472,7.257s10.612,8.678,10.612,8.678l2.544,2.294.481-.522s-5.454-6.9-7.867-9.84S2.993,2.548,4.6,1.635,17.516,15.06,17.516,15.06,9.951,1.861,12.046.132s9.606,14.125,9.606,14.125-2.041-9.841-.038-9.919,5.217,12.857,5.217,12.857,6.047,15.53,6.318,16.716,12.5,19.7,12.5,19.7l-9.11,9.256Z" transform="translate(0 0)" fill="#ffde59"/>
      <g id="Group_451" data-name="Group 451" transform="translate(0.706 0.928)">
        <path id="Path_993" data-name="Path 993" d="M2.344,1.216A5.706,5.706,0,0,0,1.272.327C.972.136.518-.175.184.124-.122.4.018.886.148,1.209a4.948,4.948,0,0,0,.8,1.224.2.2,0,0,0,.335.122q.52-.519,1.037-1.042A.214.214,0,0,0,2.344,1.216ZM.763.53.726.475C.754.489.784.5.813.521A.194.194,0,0,0,.763.53Z" transform="translate(0.005 6.825)" fill="#ffde59"/>
        <path id="Path_994" data-name="Path 994" d="M2.858,1.456A10.108,10.108,0,0,0,1.574.3,1.1,1.1,0,0,0,.281.157c-.436.314-.27.907-.128,1.334A3.735,3.735,0,0,0,1.028,2.92.207.207,0,0,0,1.357,2.9a.188.188,0,0,0,.226-.028L2.836,1.754A.214.214,0,0,0,2.858,1.456Zm-.49.1.025.024-.058.052A.223.223,0,0,0,2.368,1.559Z" transform="translate(3.326 1.482)" fill="#ffde59"/>
        <path id="Path_995" data-name="Path 995" d="M2.07,1.658a7.568,7.568,0,0,0-.8-1.185A.977.977,0,0,0,.359.016c-.441.1-.368.6-.33.94A4.282,4.282,0,0,0,.406,2.279a.216.216,0,0,0,.058.076v0a.213.213,0,0,0,.3.154q.616-.261,1.208-.574A.214.214,0,0,0,2.07,1.658Z" transform="translate(10.897 0)" fill="#ffde59"/>
        <path id="Path_996" data-name="Path 996" d="M2.825.709a1.732,1.732,0,0,0-.753-.32A3.444,3.444,0,0,0,1.195.133C.852-.028.443-.1.193.249-.192.54.071,1.195.359,1.485a5.284,5.284,0,0,0,1.693,1.03.211.211,0,0,0,.245-.08c.161-.313.313-.631.45-.956C2.843,1.252,3.046.925,2.825.709Z" transform="translate(0 20.237)" fill="#ffde59"/>
        <path id="Path_997" data-name="Path 997" d="M1.457,1.533,1.2,1.041A2.264,2.264,0,0,0,1.011.7,6.33,6.33,0,0,0,.766.116.215.215,0,0,0,.372.148.437.437,0,0,0,.011.526,3.191,3.191,0,0,0,.12,1.532c.018.182.04.364.058.546a.176.176,0,0,0,.1.153c.04.145.095.286.265.3a2.369,2.369,0,0,0,.49-.049,1.463,1.463,0,0,0,.553-.092C1.924,2.2,1.575,1.758,1.457,1.533Z" transform="translate(19.616 4.082)" fill="#ffde59"/>
      </g>
    </g>
    <g id="Group_20" data-name="Group 20" transform="matrix(0.809, 0.588, -0.588, 0.809, 194.691, 176.196)">
      <path id="Path_992-2" data-name="Path 992" d="M23.85,39.806c-.169-.358-8.555-4.836-11.342-6.722a55.505,55.505,0,0,1-5.337-4.193S-.8,24.375.065,22.5s3.366-.582,4.944-.019S11.246,25.5,11.246,25.5s-6.922-10-8.358-11.8S-.8,8.449.472,7.257s10.612,8.678,10.612,8.678l2.544,2.294.481-.522s-5.454-6.9-7.867-9.84S2.993,2.548,4.6,1.635,17.516,15.06,17.516,15.06,9.951,1.861,12.046.132s9.606,14.125,9.606,14.125-2.041-9.841-.038-9.919,5.217,12.857,5.217,12.857,6.047,15.53,6.318,16.716,12.5,19.7,12.5,19.7l-9.11,9.256Z" transform="translate(0 0)" fill="#ffde59"/>
      <g id="Group_451-2" data-name="Group 451" transform="translate(0.706 0.928)">
        <path id="Path_993-2" data-name="Path 993" d="M2.344,1.216A5.706,5.706,0,0,0,1.272.327C.972.136.518-.175.184.124-.122.4.018.886.148,1.209a4.948,4.948,0,0,0,.8,1.224.2.2,0,0,0,.335.122q.52-.519,1.037-1.042A.214.214,0,0,0,2.344,1.216ZM.763.53.726.475C.754.489.784.5.813.521A.194.194,0,0,0,.763.53Z" transform="translate(0.005 6.825)" fill="#ffde59"/>
        <path id="Path_994-2" data-name="Path 994" d="M2.858,1.456A10.108,10.108,0,0,0,1.574.3,1.1,1.1,0,0,0,.281.157c-.436.314-.27.907-.128,1.334A3.735,3.735,0,0,0,1.028,2.92.207.207,0,0,0,1.357,2.9a.188.188,0,0,0,.226-.028L2.836,1.754A.214.214,0,0,0,2.858,1.456Zm-.49.1.025.024-.058.052A.223.223,0,0,0,2.368,1.559Z" transform="translate(3.326 1.482)" fill="#ffde59"/>
        <path id="Path_995-2" data-name="Path 995" d="M2.07,1.658a7.568,7.568,0,0,0-.8-1.185A.977.977,0,0,0,.359.016c-.441.1-.368.6-.33.94A4.282,4.282,0,0,0,.406,2.279a.216.216,0,0,0,.058.076v0a.213.213,0,0,0,.3.154q.616-.261,1.208-.574A.214.214,0,0,0,2.07,1.658Z" transform="translate(10.897 0)" fill="#ffde59"/>
        <path id="Path_996-2" data-name="Path 996" d="M2.825.709a1.732,1.732,0,0,0-.753-.32A3.444,3.444,0,0,0,1.195.133C.852-.028.443-.1.193.249-.192.54.071,1.195.359,1.485a5.284,5.284,0,0,0,1.693,1.03.211.211,0,0,0,.245-.08c.161-.313.313-.631.45-.956C2.843,1.252,3.046.925,2.825.709Z" transform="translate(0 20.237)" fill="#ffde59"/>
        <path id="Path_997-2" data-name="Path 997" d="M1.457,1.533,1.2,1.041A2.264,2.264,0,0,0,1.011.7,6.33,6.33,0,0,0,.766.116.215.215,0,0,0,.372.148.437.437,0,0,0,.011.526,3.191,3.191,0,0,0,.12,1.532c.018.182.04.364.058.546a.176.176,0,0,0,.1.153c.04.145.095.286.265.3a2.369,2.369,0,0,0,.49-.049,1.463,1.463,0,0,0,.553-.092C1.924,2.2,1.575,1.758,1.457,1.533Z" transform="translate(19.616 4.082)" fill="#ffde59"/>
      </g>
    </g>
    <g id="Group_21" data-name="Group 21" transform="translate(162.788 160.696) rotate(90)">
      <path id="Path_992-3" data-name="Path 992" d="M23.85,39.806c-.169-.358-8.555-4.836-11.342-6.722a55.5,55.5,0,0,1-5.337-4.193S-.8,24.375.065,22.5s3.366-.582,4.944-.019S11.246,25.5,11.246,25.5s-6.922-10-8.358-11.8S-.8,8.449.472,7.257s10.612,8.678,10.612,8.678l2.544,2.294.481-.522s-5.454-6.9-7.867-9.84S2.993,2.548,4.6,1.635,17.516,15.06,17.516,15.06,9.951,1.861,12.046.132s9.606,14.125,9.606,14.125-2.041-9.841-.038-9.919,5.217,12.857,5.217,12.857,6.047,15.53,6.318,16.716,12.5,19.7,12.5,19.7l-9.11,9.256Z" transform="translate(0 0)" fill="#ffde59"/>
      <g id="Group_451-3" data-name="Group 451" transform="translate(0.706 0.928)">
        <path id="Path_993-3" data-name="Path 993" d="M2.344,1.216A5.706,5.706,0,0,0,1.272.327C.972.136.518-.175.184.124-.122.4.018.886.148,1.209a4.948,4.948,0,0,0,.8,1.224.2.2,0,0,0,.335.122q.52-.519,1.037-1.042A.214.214,0,0,0,2.344,1.216ZM.763.53.726.475C.754.489.784.5.813.521A.194.194,0,0,0,.763.53Z" transform="translate(0.005 6.825)" fill="#ffde59"/>
        <path id="Path_994-3" data-name="Path 994" d="M2.858,1.456A10.108,10.108,0,0,0,1.574.3,1.1,1.1,0,0,0,.281.157c-.436.314-.27.907-.128,1.334A3.735,3.735,0,0,0,1.028,2.92.207.207,0,0,0,1.357,2.9a.188.188,0,0,0,.226-.028L2.836,1.754A.214.214,0,0,0,2.858,1.456Zm-.49.1.025.024-.058.052A.223.223,0,0,0,2.368,1.559Z" transform="translate(3.326 1.482)" fill="#ffde59"/>
        <path id="Path_995-3" data-name="Path 995" d="M2.07,1.658a7.568,7.568,0,0,0-.8-1.185A.977.977,0,0,0,.359.016c-.441.1-.368.6-.33.94A4.282,4.282,0,0,0,.406,2.279a.216.216,0,0,0,.058.076v0a.213.213,0,0,0,.3.154q.616-.261,1.208-.574A.214.214,0,0,0,2.07,1.658Z" transform="translate(10.897 0)" fill="#ffde59"/>
        <path id="Path_996-3" data-name="Path 996" d="M2.825.709a1.732,1.732,0,0,0-.753-.32A3.444,3.444,0,0,0,1.195.133C.852-.028.443-.1.193.249-.192.54.071,1.195.359,1.485a5.284,5.284,0,0,0,1.693,1.03.211.211,0,0,0,.245-.08c.161-.313.313-.631.45-.956C2.843,1.252,3.046.925,2.825.709Z" transform="translate(0 20.237)" fill="#ffde59"/>
        <path id="Path_997-3" data-name="Path 997" d="M1.457,1.533,1.2,1.041A2.264,2.264,0,0,0,1.011.7,6.33,6.33,0,0,0,.766.116.215.215,0,0,0,.372.148.437.437,0,0,0,.011.526,3.191,3.191,0,0,0,.12,1.532c.018.182.04.364.058.546a.176.176,0,0,0,.1.153c.04.145.095.286.265.3a2.369,2.369,0,0,0,.49-.049,1.463,1.463,0,0,0,.553-.092C1.924,2.2,1.575,1.758,1.457,1.533Z" transform="translate(19.616 4.082)" fill="#ffde59"/>
      </g>
    </g>
    <g id="Group_22" data-name="Group 22" transform="translate(150.239 130.538) rotate(135)">
      <path id="Path_992-4" data-name="Path 992" d="M23.85,39.806c-.169-.358-8.555-4.836-11.342-6.722a55.5,55.5,0,0,1-5.337-4.193S-.8,24.375.065,22.5s3.366-.582,4.944-.019S11.246,25.5,11.246,25.5s-6.922-10-8.358-11.8S-.8,8.449.472,7.257s10.612,8.678,10.612,8.678l2.544,2.294.481-.522s-5.454-6.9-7.867-9.84S2.993,2.548,4.6,1.635,17.516,15.06,17.516,15.06,9.951,1.861,12.046.132s9.606,14.125,9.606,14.125-2.041-9.841-.038-9.919,5.217,12.857,5.217,12.857,6.047,15.53,6.318,16.716,12.5,19.7,12.5,19.7l-9.11,9.256Z" transform="translate(0 0)" fill="#ffde59"/>
      <g id="Group_451-4" data-name="Group 451" transform="translate(0.706 0.928)">
        <path id="Path_993-4" data-name="Path 993" d="M2.344,1.216A5.706,5.706,0,0,0,1.272.327C.972.136.518-.175.184.124-.122.4.018.886.148,1.209a4.948,4.948,0,0,0,.8,1.224.2.2,0,0,0,.335.122q.52-.519,1.037-1.042A.214.214,0,0,0,2.344,1.216ZM.763.53.726.475C.754.489.784.5.813.521A.194.194,0,0,0,.763.53Z" transform="translate(0.005 6.825)" fill="#ffde59"/>
        <path id="Path_994-4" data-name="Path 994" d="M2.858,1.456A10.108,10.108,0,0,0,1.574.3,1.1,1.1,0,0,0,.281.157c-.436.314-.27.907-.128,1.334A3.735,3.735,0,0,0,1.028,2.92.207.207,0,0,0,1.357,2.9a.188.188,0,0,0,.226-.028L2.836,1.754A.214.214,0,0,0,2.858,1.456Zm-.49.1.025.024-.058.052A.223.223,0,0,0,2.368,1.559Z" transform="translate(3.326 1.482)" fill="#ffde59"/>
        <path id="Path_995-4" data-name="Path 995" d="M2.07,1.658a7.568,7.568,0,0,0-.8-1.185A.977.977,0,0,0,.359.016c-.441.1-.368.6-.33.94A4.282,4.282,0,0,0,.406,2.279a.216.216,0,0,0,.058.076v0a.213.213,0,0,0,.3.154q.616-.261,1.208-.574A.214.214,0,0,0,2.07,1.658Z" transform="translate(10.897 0)" fill="#ffde59"/>
        <path id="Path_996-4" data-name="Path 996" d="M2.825.709a1.732,1.732,0,0,0-.753-.32A3.444,3.444,0,0,0,1.195.133C.852-.028.443-.1.193.249-.192.54.071,1.195.359,1.485a5.284,5.284,0,0,0,1.693,1.03.211.211,0,0,0,.245-.08c.161-.313.313-.631.45-.956C2.843,1.252,3.046.925,2.825.709Z" transform="translate(0 20.237)" fill="#ffde59"/>
        <path id="Path_997-4" data-name="Path 997" d="M1.457,1.533,1.2,1.041A2.264,2.264,0,0,0,1.011.7,6.33,6.33,0,0,0,.766.116.215.215,0,0,0,.372.148.437.437,0,0,0,.011.526,3.191,3.191,0,0,0,.12,1.532c.018.182.04.364.058.546a.176.176,0,0,0,.1.153c.04.145.095.286.265.3a2.369,2.369,0,0,0,.49-.049,1.463,1.463,0,0,0,.553-.092C1.924,2.2,1.575,1.758,1.457,1.533Z" transform="translate(19.616 4.082)" fill="#ffde59"/>
      </g>
    </g>
    <g id="Group_23" data-name="Group 23" transform="translate(174.568 99.464) rotate(-173)">
      <path id="Path_992-5" data-name="Path 992" d="M23.85,39.806c-.169-.358-8.555-4.836-11.342-6.722a55.5,55.5,0,0,1-5.337-4.193S-.8,24.375.065,22.5s3.366-.582,4.944-.019S11.246,25.5,11.246,25.5s-6.922-10-8.358-11.8S-.8,8.449.472,7.257s10.612,8.678,10.612,8.678l2.544,2.294.481-.522s-5.454-6.9-7.867-9.84S2.993,2.548,4.6,1.635,17.516,15.06,17.516,15.06,9.951,1.861,12.046.132s9.606,14.125,9.606,14.125-2.041-9.841-.038-9.919,5.217,12.857,5.217,12.857,6.047,15.53,6.318,16.716,12.5,19.7,12.5,19.7l-9.11,9.256Z" transform="translate(0 0)" fill="#ffde59"/>
      <g id="Group_451-5" data-name="Group 451" transform="translate(0.706 0.928)">
        <path id="Path_993-5" data-name="Path 993" d="M2.344,1.216A5.706,5.706,0,0,0,1.272.327C.972.136.518-.175.184.124-.122.4.018.886.148,1.209a4.948,4.948,0,0,0,.8,1.224.2.2,0,0,0,.335.122q.52-.519,1.037-1.042A.214.214,0,0,0,2.344,1.216ZM.763.53.726.475C.754.489.784.5.813.521A.194.194,0,0,0,.763.53Z" transform="translate(0.005 6.825)" fill="#ffde59"/>
        <path id="Path_994-5" data-name="Path 994" d="M2.858,1.456A10.108,10.108,0,0,0,1.574.3,1.1,1.1,0,0,0,.281.157c-.436.314-.27.907-.128,1.334A3.735,3.735,0,0,0,1.028,2.92.207.207,0,0,0,1.357,2.9a.188.188,0,0,0,.226-.028L2.836,1.754A.214.214,0,0,0,2.858,1.456Zm-.49.1.025.024-.058.052A.223.223,0,0,0,2.368,1.559Z" transform="translate(3.326 1.482)" fill="#ffde59"/>
        <path id="Path_995-5" data-name="Path 995" d="M2.07,1.658a7.568,7.568,0,0,0-.8-1.185A.977.977,0,0,0,.359.016c-.441.1-.368.6-.33.94A4.282,4.282,0,0,0,.406,2.279a.216.216,0,0,0,.058.076v0a.213.213,0,0,0,.3.154q.616-.261,1.208-.574A.214.214,0,0,0,2.07,1.658Z" transform="translate(10.897 0)" fill="#ffde59"/>
        <path id="Path_996-5" data-name="Path 996" d="M2.825.709a1.732,1.732,0,0,0-.753-.32A3.444,3.444,0,0,0,1.195.133C.852-.028.443-.1.193.249-.192.54.071,1.195.359,1.485a5.284,5.284,0,0,0,1.693,1.03.211.211,0,0,0,.245-.08c.161-.313.313-.631.45-.956C2.843,1.252,3.046.925,2.825.709Z" transform="translate(0 20.237)" fill="#ffde59"/>
        <path id="Path_997-5" data-name="Path 997" d="M1.457,1.533,1.2,1.041A2.264,2.264,0,0,0,1.011.7,6.33,6.33,0,0,0,.766.116.215.215,0,0,0,.372.148.437.437,0,0,0,.011.526,3.191,3.191,0,0,0,.12,1.532c.018.182.04.364.058.546a.176.176,0,0,0,.1.153c.04.145.095.286.265.3a2.369,2.369,0,0,0,.49-.049,1.463,1.463,0,0,0,.553-.092C1.924,2.2,1.575,1.758,1.457,1.533Z" transform="translate(19.616 4.082)" fill="#ffde59"/>
      </g>
    </g>
    <g id="Group_24" data-name="Group 24" transform="matrix(-0.602, -0.799, 0.799, -0.602, 202.935, 95.402)">
      <path id="Path_992-6" data-name="Path 992" d="M23.85,39.806c-.169-.358-8.555-4.836-11.342-6.722a55.505,55.505,0,0,1-5.337-4.193S-.8,24.375.065,22.5s3.366-.582,4.944-.019S11.246,25.5,11.246,25.5s-6.922-10-8.358-11.8S-.8,8.449.472,7.257s10.612,8.678,10.612,8.678l2.544,2.294.481-.522s-5.454-6.9-7.867-9.84S2.993,2.548,4.6,1.635,17.516,15.06,17.516,15.06,9.951,1.861,12.046.132s9.606,14.125,9.606,14.125-2.041-9.841-.038-9.919,5.217,12.857,5.217,12.857,6.047,15.53,6.318,16.716,12.5,19.7,12.5,19.7l-9.11,9.256Z" transform="translate(0 0)" fill="#ffde59"/>
      <g id="Group_451-6" data-name="Group 451" transform="translate(0.706 0.928)">
        <path id="Path_993-6" data-name="Path 993" d="M2.344,1.216A5.706,5.706,0,0,0,1.272.327C.972.136.518-.175.184.124-.122.4.018.886.148,1.209a4.948,4.948,0,0,0,.8,1.224.2.2,0,0,0,.335.122q.52-.519,1.037-1.042A.214.214,0,0,0,2.344,1.216ZM.763.53.726.475C.754.489.784.5.813.521A.194.194,0,0,0,.763.53Z" transform="translate(0.005 6.825)" fill="#ffde59"/>
        <path id="Path_994-6" data-name="Path 994" d="M2.858,1.456A10.108,10.108,0,0,0,1.574.3,1.1,1.1,0,0,0,.281.157c-.436.314-.27.907-.128,1.334A3.735,3.735,0,0,0,1.028,2.92.207.207,0,0,0,1.357,2.9a.188.188,0,0,0,.226-.028L2.836,1.754A.214.214,0,0,0,2.858,1.456Zm-.49.1.025.024-.058.052A.223.223,0,0,0,2.368,1.559Z" transform="translate(3.326 1.482)" fill="#ffde59"/>
        <path id="Path_995-6" data-name="Path 995" d="M2.07,1.658a7.568,7.568,0,0,0-.8-1.185A.977.977,0,0,0,.359.016c-.441.1-.368.6-.33.94A4.282,4.282,0,0,0,.406,2.279a.216.216,0,0,0,.058.076v0a.213.213,0,0,0,.3.154q.616-.261,1.208-.574A.214.214,0,0,0,2.07,1.658Z" transform="translate(10.897 0)" fill="#ffde59"/>
        <path id="Path_996-6" data-name="Path 996" d="M2.825.709a1.732,1.732,0,0,0-.753-.32A3.444,3.444,0,0,0,1.195.133C.852-.028.443-.1.193.249-.192.54.071,1.195.359,1.485a5.284,5.284,0,0,0,1.693,1.03.211.211,0,0,0,.245-.08c.161-.313.313-.631.45-.956C2.843,1.252,3.046.925,2.825.709Z" transform="translate(0 20.237)" fill="#ffde59"/>
        <path id="Path_997-6" data-name="Path 997" d="M1.457,1.533,1.2,1.041A2.264,2.264,0,0,0,1.011.7,6.33,6.33,0,0,0,.766.116.215.215,0,0,0,.372.148.437.437,0,0,0,.011.526,3.191,3.191,0,0,0,.12,1.532c.018.182.04.364.058.546a.176.176,0,0,0,.1.153c.04.145.095.286.265.3a2.369,2.369,0,0,0,.49-.049,1.463,1.463,0,0,0,.553-.092C1.924,2.2,1.575,1.758,1.457,1.533Z" transform="translate(19.616 4.082)" fill="#ffde59"/>
      </g>
    </g>
  </g>
</svg>
