<svg xmlns="http://www.w3.org/2000/svg" width="127.158" height="98.9" viewBox="0 0 127.158 98.9">
  <g id="Group_1" data-name="Group 1" transform="translate(-123.921 -88.05)">
    <path id="Icon_awesome-credit-card" data-name="Icon awesome-credit-card" d="M0,90.554a10.6,10.6,0,0,0,10.6,10.6H116.561a10.6,10.6,0,0,0,10.6-10.6V51.7H0ZM42.386,75.542a2.657,2.657,0,0,1,2.649-2.649H75.058a2.657,2.657,0,0,1,2.649,2.649v8.83a2.657,2.657,0,0,1-2.649,2.649H45.035a2.657,2.657,0,0,1-2.649-2.649Zm-28.257,0a2.657,2.657,0,0,1,2.649-2.649H32.672a2.657,2.657,0,0,1,2.649,2.649v8.83a2.657,2.657,0,0,1-2.649,2.649H16.778a2.657,2.657,0,0,1-2.649-2.649Zm113.029-62.7v10.6H0v-10.6A10.6,10.6,0,0,1,10.6,2.25H116.561A10.6,10.6,0,0,1,127.158,12.846Z" transform="translate(123.921 85.8)" fill="#3c3c3c"/>
  </g>
</svg>
