<svg xmlns="http://www.w3.org/2000/svg" width="394.147" height="266.059" viewBox="0 0 394.147 266.059">
  <path id="Icon_zocial-email" data-name="Icon zocial-email" d="M.072,246.561V27.633q0-.38,1.14-7.222L130.061,130.636,1.592,254.163a32.212,32.212,0,0,1-1.52-7.6ZM17.176,5.208a16.38,16.38,0,0,1,6.461-1.14H370.654a21.523,21.523,0,0,1,6.842,1.14l-129.229,110.6-17.1,13.683-33.827,27.746L163.508,129.5l-17.1-13.683Zm.38,263.778L147.164,144.7l50.171,40.669L247.507,144.7,377.115,268.986a18.249,18.249,0,0,1-6.461,1.14H23.637a17.214,17.214,0,0,1-6.081-1.14ZM264.61,130.636,393.079,20.412a22.685,22.685,0,0,1,1.14,7.222V246.561a29.131,29.131,0,0,1-1.14,7.6Z" transform="translate(-0.072 -4.068)" fill="#fff"/>
</svg>
