<svg xmlns="http://www.w3.org/2000/svg" width="93" height="82" viewBox="0 0 93 82">
  <g id="Group_2" data-name="Group 2" transform="translate(-130 -86)">
    <path id="Icon_awesome-facebook-square" data-name="Icon awesome-facebook-square" d="M38.432,2.25H4.612A4.612,4.612,0,0,0,0,6.862v33.82a4.612,4.612,0,0,0,4.612,4.612H17.8V30.66H11.746V23.772H17.8v-5.25c0-5.971,3.555-9.27,9-9.27a36.67,36.67,0,0,1,5.334.465v5.861h-3c-2.96,0-3.884,1.837-3.884,3.721v4.472h6.608L30.8,30.66H25.245V45.294H38.432a4.612,4.612,0,0,0,4.612-4.612V6.862A4.612,4.612,0,0,0,38.432,2.25Z" transform="translate(155.714 103.847)" fill="#fff"/>
    <g id="Rectangle_1156" data-name="Rectangle 1156" transform="translate(130 86)" fill="none" stroke="#fff" stroke-width="2">
      <path d="M0,0H82A11,11,0,0,1,93,11V71A11,11,0,0,1,82,82H11A11,11,0,0,1,0,71V0A0,0,0,0,1,0,0Z" stroke="none"/>
      <path d="M2,1H82A10,10,0,0,1,92,11V71A10,10,0,0,1,82,81H11A10,10,0,0,1,1,71V2A1,1,0,0,1,2,1Z" fill="none"/>
    </g>
  </g>
</svg>
