<svg xmlns="http://www.w3.org/2000/svg" width="303.558" height="341.089" viewBox="0 0 303.558 341.089">
  <path id="Path" d="M304.957,256.711v51.347a36.423,36.423,0,0,1-9.89,25.366,28.527,28.527,0,0,1-23.4,8.857c-46.954-5.725-92.077-23.723-131.706-52.528-36.881-26.29-68.131-61.36-91.574-102.695C22.59,142.386,6.541,91.552,1.528,38.664A36.913,36.913,0,0,1,9.4,12.5a29.137,29.137,0,0,1,22.5-11.168H77.694C93.01,1.18,106.082,13.76,108.211,30.782A242.368,242.368,0,0,0,118.9,78.869c4.189,12.529,1.511,26.624-6.868,36.123L92.643,136.737c21.726,42.849,53.364,78.331,91.574,102.695l19.391-21.746c8.471-9.4,21.039-12.4,32.211-7.7a179.188,179.188,0,0,0,42.879,11.99C294.036,224.388,305.323,239.33,304.957,256.711Z" transform="translate(-1.408 -1.333)" fill="#fff"/>
</svg>
