<svg xmlns="http://www.w3.org/2000/svg" width="281.374" height="281.422" viewBox="0 0 281.374 281.422">
  <path id="Icon_awesome-search" data-name="Icon awesome-search" d="M277.547,243.307l-54.795-54.795a13.18,13.18,0,0,0-9.343-3.847h-8.958a114.264,114.264,0,1,0-19.786,19.786v8.958a13.18,13.18,0,0,0,3.847,9.343l54.795,54.795a13.136,13.136,0,0,0,18.631,0l15.554-15.554a13.252,13.252,0,0,0,.055-18.686ZM114.316,184.665a70.349,70.349,0,1,1,70.349-70.349A70.308,70.308,0,0,1,114.316,184.665Z" fill="#1c1b19"/>
</svg>
