<svg xmlns="http://www.w3.org/2000/svg" width="167.174" height="162.246" viewBox="0 0 167.174 162.246">
  <g id="Group_766" data-name="Group 766" transform="translate(-1496.076 -479.097)">
    <path id="Path_961" data-name="Path 961" d="M348.1,268.009c-9.311,2.557-22.585-4.165-29.166-6.418-8.334-2.85-26.363,6.519-29.384,12.51-4.091,8.109-41.329,35.972-41.329,35.972a119.991,119.991,0,0,0,16,20.61,101.59,101.59,0,0,0,18.455,14.807s17.487-27.768,24.69-29.827c6.723-1.921,39.568,4.074,65.077-11.509C372.447,304.153,357.414,265.451,348.1,268.009Z" transform="translate(1247.852 295.852)" fill="#abadac"/>
    <path id="Path_962" data-name="Path 962" d="M378.773,260.6s13.385-6.108,15.711-8.146,9.6-15.421,12.8-21.531,13.093-4.364,11.056,5.238-7.2,20.358-11.637,25.852c-3.118,3.864-21.529,11.1-21.529,11.1Z" transform="translate(1216.018 304.071)" fill="#414141"/>
    <path id="Path_963" data-name="Path 963" d="M400.849,252.714c4.758-5.564,3.374-13.32,7.777-18.908a20.951,20.951,0,0,1,7.048-5.751,6.209,6.209,0,0,0-8.39,2.873c-3.2,6.11-10.474,19.494-12.8,21.531s-15.711,8.146-15.711,8.146l.677,1.322C387.364,261.363,395.562,258.9,400.849,252.714Z" transform="translate(1216.018 304.069)" fill="#d6c5bc" style="mix-blend-mode: multiply;isolation: isolate"/>
    <path id="Path_964" data-name="Path 964" d="M379.6,267.56s26.1-16.449,28.823-18.828,11.212-18.009,14.95-25.146,15.291-5.1,12.913,6.117-8.434,23.76-13.592,30.194c-7.309,9.119-34.366,22.5-34.366,22.5Z" transform="translate(1215.817 306.007)" fill="#ffde59"/>
    <path id="Path_965" data-name="Path 965" d="M409.73,253.6c9.14-6.466,13.629-13.262,16.469-23.848a27.072,27.072,0,0,1,4.867-10.275,7.441,7.441,0,0,0-7.239,4.113c-3.738,7.137-12.233,22.766-14.95,25.146-2.336,2.044-21.943,14.48-27.4,17.932C391.63,266.286,401.482,259.434,409.73,253.6Z" transform="translate(1215.36 306)" fill="#d6c5bc" style="mix-blend-mode: multiply;isolation: isolate"/>
    <path id="Path_966" data-name="Path 966" d="M385.84,276.129s26.105-16.451,28.824-18.83,11.211-18.011,14.95-25.145,15.291-5.1,12.912,6.117-8.433,23.758-13.591,30.193c-7.31,9.118-34.366,22.5-34.366,22.5Z" transform="translate(1214.295 303.917)" fill="#abadac"/>
    <path id="Path_967" data-name="Path 967" d="M415.974,262.168c9.141-6.462,13.63-13.259,16.47-23.844a27.075,27.075,0,0,1,4.868-10.276,7.443,7.443,0,0,0-7.24,4.114c-3.738,7.134-12.233,22.765-14.95,25.145-2.337,2.045-21.943,14.481-27.4,17.934C397.873,274.855,407.726,268,415.974,262.168Z" transform="translate(1213.837 303.91)" fill="#d6c5bc" style="mix-blend-mode: multiply;isolation: isolate"/>
    <path id="Path_968" data-name="Path 968" d="M393.92,286.548s26.1-16.452,28.823-18.831,11.213-18.008,14.951-25.143,15.29-5.1,12.913,6.116-8.434,23.76-13.592,30.195c-7.31,9.118-34.366,22.5-34.366,22.5Z" transform="translate(1212.324 301.377)" fill="#abadac"/>
    <path id="Path_969" data-name="Path 969" d="M424.053,272.588c9.141-6.464,13.63-13.261,16.47-23.845a27.081,27.081,0,0,1,4.869-10.275,7.44,7.44,0,0,0-7.24,4.113c-3.738,7.135-12.232,22.765-14.951,25.143-2.336,2.046-21.943,14.482-27.4,17.934C405.952,285.275,415.805,278.422,424.053,272.588Z" transform="translate(1211.867 301.37)" fill="#b5b5b5" style="mix-blend-mode: multiply;isolation: isolate"/>
    <path id="Path_970" data-name="Path 970" d="M356.13,187.86c14.494,17.962,12.539,48.051-5.657,55.891-10.525,18.759-44.785,7.4-55.823-6.28-21.7-26.9-21.665-79.323-21.665-79.323S334.426,160.965,356.13,187.86Z" transform="translate(1241.814 320.949)" fill="#fcd247"/>
    <path id="Path_971" data-name="Path 971" d="M355.768,183.943c-17.456-16.419-50.45-22.382-67.808-24.44,12.111,7.894,28.2,6.592,41.139,13.7C335.421,176.671,347.741,185.248,355.768,183.943Z" transform="translate(1238.163 320.618)" fill="#ffde59"/>
    <path id="Path_972" data-name="Path 972" d="M357.361,212.328c-.91,6.83-2.613,14.339-7.945,19.189-10.253,9.318-23.32,8.119-34.991,2.172-10.9-5.557-21.565-15.471-26.869-26.623-4.34-9.124-5.968-19.18-9.813-28.476-1.284-3.1-2.669-6.589-4.371-9.921.935,15.69,4.86,50.906,21.372,71.367,11.038,13.678,45.3,25.039,55.823,6.28,17.42-7.5,19.943-35.392,7.412-53.519C356.993,199.16,358.078,206.943,357.361,212.328Z" transform="translate(1241.728 319.483)" fill="#ffde59"/>
    <path id="Path_973" data-name="Path 973" d="M354.749,247.058s-.448-8.742-9.377-21.516c-18.936-27.09-54.849-53.833-54.849-53.833s39.429,21.651,60.308,50C359.119,232.957,354.749,247.058,354.749,247.058Z" transform="translate(1237.538 317.642)" fill="#ffde59"/>
    <path id="Path_974" data-name="Path 974" d="M371.6,206.856c-11.807,14.632-10.214,39.143,4.608,45.53,8.575,15.283,36.484,6.027,45.476-5.115,17.68-21.909,17.65-64.621,17.65-64.621S389.279,184.946,371.6,206.856Z" transform="translate(1220.604 315.132)" fill="#fcd247"/>
    <path id="Path_975" data-name="Path 975" d="M378.444,203.664c14.222-13.375,41.1-18.229,55.238-19.906-9.865,6.428-22.969,5.369-33.513,11.156C395.019,197.741,384.983,204.728,378.444,203.664Z" transform="translate(1216.098 314.704)" fill="#ffde59"/>
    <path id="Path_976" data-name="Path 976" d="M370.782,226.787c.753,5.565,2.162,11.683,6.574,15.633,8.481,7.592,19.292,6.616,28.946,1.771,9.017-4.527,17.841-12.605,22.23-21.688,3.589-7.433,4.938-15.623,8.118-23.2,1.062-2.526,2.208-5.368,3.615-8.081-.773,12.781-4.021,41.47-17.681,58.138-9.131,11.142-37.474,20.4-46.182,5.115-14.41-6.114-16.5-28.831-6.13-43.6C371.085,216.064,370.188,222.4,370.782,226.787Z" transform="translate(1219.672 312.883)" fill="#ffde59"/>
    <path id="Path_977" data-name="Path 977" d="M379.912,255.08s.367-7.121,7.64-17.528c15.426-22.069,44.681-43.856,44.681-43.856s-32.119,17.639-49.128,40.731C376.353,243.594,379.912,255.08,379.912,255.08Z" transform="translate(1215.969 312.28)" fill="#ffde59"/>
    <path id="Path_978" data-name="Path 978" d="M301.051,296.266s4.784-14.495,24.367-17.985,24.363,1.165,31.421,0,18.467-6.842,27.409-9.965c10.188-3.557,18.584,3.36,18.564,9.311-.007,2.414-13.41,2.939-17.482,7.416s-15.042,9.53-17.109,15.931-14.219,14.185-18,13.018" transform="translate(1234.97 294.322)" fill="#abadac"/>
    <path id="Path_979" data-name="Path 979" d="M345.786,280.53c6.486.522,13.321,2.762,19.77,1.256,7.3-1.7,14.214-4.951,20.953-8.159,3.9-1.857,9.159-4.558,13.572-2.827,2.144.839,6.832,2.848,9.444,5.5-.361-5.85-8.58-12.363-18.529-8.89-8.943,3.121-20.353,8.8-27.41,9.965-5.555.917-9.7-1.772-20.759-1.256-2.994.138-11.483,3.724-14.328,8.273C333.886,279.767,340.052,280.071,345.786,280.53Z" transform="translate(1228.257 295.231)" fill="#abadac" style="mix-blend-mode: multiply;isolation: isolate"/>
  </g>
</svg>
