<svg xmlns="http://www.w3.org/2000/svg" width="275.634" height="193.84" viewBox="0 0 275.634 193.84">
  <g id="Group_770" data-name="Group 770" transform="translate(-599.746 -479.096)">
    <path id="Path_1801" data-name="Path 1801" d="M445.85,1638.2s-13.161-20.178-19.494-23.989c-6.748-4.059-1.611,8.094-1.611,8.094s-13.789-16.409-17.623-13.075-.354,7.195-.354,7.195-12.38-3.669-14.6.876c-3.419,6.983,16.963,12.772,16.963,12.772s-8.749-.092-7.14,4.622C404.414,1641.8,445.85,1638.2,445.85,1638.2Z" transform="translate(234.073 -967.012)" fill="#b7b7b7"/>
    <path id="Path_1792" data-name="Path 1792" d="M209.049,1592.208c-10.854,4.12-22.8,1.944-30.913-.607A77.412,77.412,0,0,1,162.953,1585l-.241.459A77.937,77.937,0,0,0,178,1592.109c8.191,2.578,20.262,4.775,31.25.6Z" transform="translate(437.034 -945.937)" fill="#b7b7b7"/>
    <path id="Path_1796" data-name="Path 1796" d="M277.737,1658.785a6.587,6.587,0,0,1,5.027-2.257,7.2,7.2,0,0,1-1.806,5.392,6.585,6.585,0,0,1-5.027,2.257A7.2,7.2,0,0,1,277.737,1658.785Z" transform="translate(336.74 -1009.316)" fill="#b7b7b7"/>
    <path id="Path_1798" data-name="Path 1798" d="M284.756,1593.443a7.69,7.69,0,0,1-1.69-5.142,6.62,6.62,0,0,1,4.436,2.6,7.689,7.689,0,0,1,1.69,5.142A6.619,6.619,0,0,1,284.756,1593.443Z" transform="translate(330.405 -948.865)" fill="#b7b7b7"/>
    <path id="Path_1799" data-name="Path 1799" d="M370.924,1669.117a2.7,2.7,0,0,1,1.706-1.615,3.1,3.1,0,0,1,.1,2.463,2.7,2.7,0,0,1-1.706,1.614A3.1,3.1,0,0,1,370.924,1669.117Z" transform="translate(252.735 -1019.042)" fill="#b7b7b7"/>
    <path id="Path_1802" data-name="Path 1802" d="M395.17,1615.474c2.225-4.544,14.6-.876,14.6-.876s-3.479-3.861.354-7.195,14.864,6.646,14.864,6.646-1.156-8.23,7.15-.979c5.933,5.178,16.713,23.3,16.713,23.3Z" transform="translate(231.067 -965.188)" fill="#b7b7b7"/>
    <path id="Path_1760" data-name="Path 1760" d="M2447.7,1640.212a6.047,6.047,0,0,0-2.236-1.346,4.657,4.657,0,0,0-2.306-.087,5.034,5.034,0,0,1,2.258-1.246,4.928,4.928,0,0,1,3.778.469c1.364.923,1.473,2.491.8,2.782C2449.318,1641.093,2448.42,1640.666,2447.7,1640.212Z" transform="translate(-1583.537 -992.336)" fill="#b7b7b7"/>
    <path id="Path_1761" data-name="Path 1761" d="M2496.725,1597.019a6.034,6.034,0,0,0-2.235-1.345,4.659,4.659,0,0,0-2.307-.087,5.028,5.028,0,0,1,2.258-1.247,4.929,4.929,0,0,1,3.778.469c1.364.923,1.473,2.491.8,2.782C2498.346,1597.9,2497.448,1597.473,2496.725,1597.019Z" transform="translate(-1626.978 -954.065)" fill="#b7b7b7"/>
    <path id="Path_1764" data-name="Path 1764" d="M2263.776,1562.468a5.264,5.264,0,0,1,2.6,1.137,4.026,4.026,0,0,1,1.186,2.194,6.678,6.678,0,0,0,.37-3.192c-.181-1.619-1.425-3.165-2.318-3.338-1.7-.613-3.558.51-3.574,1.4C2262,1561.57,2262.914,1562.115,2263.776,1562.468Z" transform="translate(-1423.06 -922.986)" fill="#b7b7b7"/>
    <path id="Path_1765" data-name="Path 1765" d="M2392.191,1623.037a4.3,4.3,0,0,1,1.841,1.4,3.284,3.284,0,0,1,.516,1.967,5.426,5.426,0,0,0,.908-2.457,3.343,3.343,0,0,0-1.192-3.092c-1.231-.815-2.917-.283-3.1.42C2390.957,1621.983,2391.576,1622.591,2392.191,1623.037Z" transform="translate(-1537.434 -977.347)" fill="#b7b7b7"/>
    <path id="Path_1768" data-name="Path 1768" d="M2546.948,1561.673a3.586,3.586,0,0,0-1.263-.894,2.76,2.76,0,0,0-1.361-.152,2.981,2.981,0,0,1,1.39-.639,2.926,2.926,0,0,1,2.215.443c.767.606.763,1.538.35,1.68S2547.356,1561.974,2546.948,1561.673Z" transform="translate(-1673.176 -923.733)" fill="#b7b7b7"/>
    <path id="Path_1770" data-name="Path 1770" d="M2296.907,1757.725c-8.671.951-16.747,4.778-24.521,8.511-5.243,2.517-4.979,3.234-6.047,3.609a.215.215,0,0,1-.261-.294,5.873,5.873,0,0,1,2.237-1.832,29.159,29.159,0,0,1,2.708-1.475c1.979-.961,4.01-1.825,6.026-2.7a87.444,87.444,0,0,1,12.609-4.6,44.3,44.3,0,0,1,7.242-1.292.035.035,0,0,1,.006.07Z" transform="translate(-1426.62 -1098.921)" fill="#b7b7b7"/>
    <path id="Path_1771" data-name="Path 1771" d="M2462.925,1717.077a5.6,5.6,0,0,1,.2,2.409,4.311,4.311,0,0,1-.876,1.951,4.66,4.66,0,0,0,1.962-1.363,4.566,4.566,0,0,0,1.165-3.329c-.206-1.512-1.463-2.247-1.982-1.805S2462.844,1716.29,2462.925,1717.077Z" transform="translate(-1600.451 -1060.96)" fill="#b7b7b7"/>
    <path id="Path_1772" data-name="Path 1772" d="M2395.888,1741.079a5.6,5.6,0,0,1,.2,2.41,4.321,4.321,0,0,1-.876,1.951,4.667,4.667,0,0,0,1.962-1.362,4.565,4.565,0,0,0,1.164-3.33c-.206-1.512-1.463-2.247-1.982-1.8S2395.808,1740.293,2395.888,1741.079Z" transform="translate(-1541.054 -1082.227)" fill="#b7b7b7"/>
    <path id="Path_1773" data-name="Path 1773" d="M2327.774,1771.44a5.585,5.585,0,0,1,.2,2.409,4.312,4.312,0,0,1-.876,1.95,4.656,4.656,0,0,0,1.963-1.362,4.564,4.564,0,0,0,1.164-3.329c-.206-1.512-1.462-2.247-1.982-1.8S2327.694,1770.653,2327.774,1771.44Z" transform="translate(-1480.702 -1109.128)" fill="#b7b7b7"/>
    <path id="Path_1774" data-name="Path 1774" d="M2465.412,1773.711a5.171,5.171,0,0,0-1.2-1.886,3.993,3.993,0,0,0-1.734-.949,4.308,4.308,0,0,1,2.207-.091,4.223,4.223,0,0,1,2.716,1.8c.692,1.229.176,2.472-.454,2.436C2466.316,1775,2465.792,1774.335,2465.412,1773.711Z" transform="translate(-1600.658 -1110.457)" fill="#b7b7b7"/>
    <path id="Path_1776" data-name="Path 1776" d="M2524.091,1758.353a3.32,3.32,0,0,0-1-1.026,2.558,2.558,0,0,0-1.214-.366,2.771,2.771,0,0,1,1.374-.349,2.709,2.709,0,0,1,1.944.774c.6.68.437,1.529.037,1.59S2524.413,1758.694,2524.091,1758.353Z" transform="translate(-1653.286 -1097.994)" fill="#b7b7b7"/>
    <path id="Path_1777" data-name="Path 1777" d="M2524.251,1730.187a3.322,3.322,0,0,1-.316,1.4,2.554,2.554,0,0,1-.843.948,2.76,2.76,0,0,0,1.353-.421,2.706,2.706,0,0,0,1.251-1.677c.153-.892-.427-1.531-.8-1.374S2524.346,1729.727,2524.251,1730.187Z" transform="translate(-1654.363 -1073.563)" fill="#b7b7b7"/>
    <path id="Path_1800" data-name="Path 1800" d="M243.307,1115.027s13.829-54.691,9.243-60.187c-6.337-7.595-11.565,17.6-12.078,15.459-4.844-20.209-6.135-46.067-21.762-48.8-8.883-1.556,2.052,19.228,1.394,24.85s-16.667-13.042-26.395-22.82-14.752-3.587-8.606,8.708c5.944,11.889,25.172,24.881,21.208,26.423s-28.026-13.812-30.972-7.249c-3.613,8.047,32.481,19,29.083,20.807s-20.65-4.146-20.178,2.008,23.661,5.925,23.265,8.631c-.642,4.383-15.98-5.537-16.654.527-.69,6.2,20.178,5.071,19.817,9.909-.208,2.78-4.685-1.413-5.345,2.438-1.5,8.781,26,19.478,26,19.478Z" transform="translate(426.071 -444.177)" fill="#b7b7b7"/>
    <path id="Path_1778" data-name="Path 1778" d="M403.828,905.541c-10.189-9.085-15.428-22.133-18.029-31.479a93.1,93.1,0,0,1-3.239-18.324l-.554-.034a93.761,93.761,0,0,0,3.258,18.452c2.625,9.438,7.919,22.62,18.235,31.818Z" transform="translate(242.73 -299.753)" fill="#b7b7b7"/>
    <path id="Path_1779" data-name="Path 1779" d="M360.5,792.221a8,8,0,0,1-.989,6.136,9.364,9.364,0,0,1-3.5-5.553,8,8,0,0,1,.989-6.136A9.364,9.364,0,0,1,360.5,792.221Z" transform="translate(265.954 -238.585)" fill="#b7b7b7"/>
    <path id="Path_1780" data-name="Path 1780" d="M324.507,875.618a9.348,9.348,0,0,1,2.98,5.844,8.132,8.132,0,0,1-5.8-2.328,9.347,9.347,0,0,1-2.981-5.844A8.131,8.131,0,0,1,324.507,875.618Z" transform="translate(298.819 -315.33)" fill="#b7b7b7"/>
    <path id="Path_1781" data-name="Path 1781" d="M316.633,952.214a8.94,8.94,0,0,1,5.03,4.049,6.967,6.967,0,0,1-5.886.625,8.939,8.939,0,0,1-5.03-4.049A6.966,6.966,0,0,1,316.633,952.214Z" transform="translate(305.869 -384.936)" fill="#b7b7b7"/>
    <path id="Path_1782" data-name="Path 1782" d="M354.918,1027.031a6.559,6.559,0,0,1,3.892,3.7,4.945,4.945,0,0,1-4.754.973,6.558,6.558,0,0,1-3.893-3.7A4.946,4.946,0,0,1,354.918,1027.031Z" transform="translate(270.944 -451.345)" fill="#b7b7b7"/>
    <path id="Path_1783" data-name="Path 1783" d="M402.93,909.586a5.978,5.978,0,0,1,4.9-1.766,6.7,6.7,0,0,1-1.9,5.085,5.978,5.978,0,0,1-4.9,1.766A6.7,6.7,0,0,1,402.93,909.586Z" transform="translate(225.883 -345.9)" fill="#b7b7b7"/>
    <path id="Path_1784" data-name="Path 1784" d="M416.764,962.463a5.978,5.978,0,0,1,4.9-1.766,6.7,6.7,0,0,1-1.9,5.085,5.977,5.977,0,0,1-4.9,1.766A6.7,6.7,0,0,1,416.764,962.463Z" transform="translate(213.625 -392.751)" fill="#b7b7b7"/>
    <path id="Path_1785" data-name="Path 1785" d="M272.29,1239.518c-9.409-1.371-17.461-6.946-22.56-11.381a64.834,64.834,0,0,1-8.914-9.409l-.335.193a65.327,65.327,0,0,0,8.974,9.476c5.148,4.479,13.283,10.11,22.809,11.5Z" transform="translate(368.127 -621.408)" fill="#b7b7b7"/>
    <path id="Path_1788" data-name="Path 1788" d="M242.485,1283.9a6.227,6.227,0,0,1,4.478.423,4.851,4.851,0,0,1-3.182,2.622,6.225,6.225,0,0,1-4.478-.424A4.852,4.852,0,0,1,242.485,1283.9Z" transform="translate(369.171 -678.941)" fill="#b7b7b7"/>
    <path id="Path_1789" data-name="Path 1789" d="M294.09,1316.151a4.568,4.568,0,0,1,3.682.657,3.444,3.444,0,0,1-2.39,2.389,4.567,4.567,0,0,1-3.683-.657A3.444,3.444,0,0,1,294.09,1316.151Z" transform="translate(322.746 -707.598)" fill="#b7b7b7"/>
    <path id="Path_1790" data-name="Path 1790" d="M286.634,1223.534a4.164,4.164,0,0,1,2.174-2.908,4.667,4.667,0,0,1,.847,3.685,4.165,4.165,0,0,1-2.174,2.909A4.668,4.668,0,0,1,286.634,1223.534Z" transform="translate(327.313 -623.09)" fill="#b7b7b7"/>
    <path id="Path_1791" data-name="Path 1791" d="M314.966,1248.964a4.165,4.165,0,0,1,2.174-2.908,4.668,4.668,0,0,1,.847,3.685,4.163,4.163,0,0,1-2.174,2.908A4.668,4.668,0,0,1,314.966,1248.964Z" transform="translate(302.209 -645.621)" fill="#b7b7b7"/>
    <path id="Path_1803" data-name="Path 1803" d="M607.287,841.566l.591-.4c-10.715-16.228-13.986-35.495-14.843-48.8a129.471,129.471,0,0,1,.719-25.277l-.732-.213a130.295,130.295,0,0,0-.728,25.436C593.156,805.727,596.458,825.164,607.287,841.566Z" transform="translate(56.66 -221.045)" fill="#b7b7b7"/>
    <path id="Path_1804" data-name="Path 1804" d="M579.632,678.609a9.925,9.925,0,0,1-2.913,7.572,14.526,14.526,0,0,1-3.03-8.739,9.926,9.926,0,0,1,2.913-7.572A14.525,14.525,0,0,1,579.632,678.609Z" transform="translate(72.891 -135.096)" fill="#b7b7b7"/>
    <path id="Path_1805" data-name="Path 1805" d="M521.11,767.9a14.2,14.2,0,0,1,2.281,8.9,12.555,12.555,0,0,1-6.857-5.525,14.2,14.2,0,0,1-2.281-8.9A12.554,12.554,0,0,1,521.11,767.9Z" transform="translate(125.609 -217.06)" fill="#b7b7b7"/>
    <path id="Path_1806" data-name="Path 1806" d="M488.943,872.314a14.263,14.263,0,0,1,5.4,7.436,9.341,9.341,0,0,1-7.753-1.713,14.264,14.264,0,0,1-5.4-7.436A9.341,9.341,0,0,1,488.943,872.314Z" transform="translate(154.849 -312.72)" fill="#b7b7b7"/>
    <path id="Path_1807" data-name="Path 1807" d="M553.871,1016.735a5.951,5.951,0,0,1,2.465,2.96,3.821,3.821,0,0,1-3.272-.462,5.949,5.949,0,0,1-2.465-2.96A3.821,3.821,0,0,1,553.871,1016.735Z" transform="translate(93.35 -441.856)" fill="#b7b7b7"/>
    <path id="Path_1808" data-name="Path 1808" d="M562.049,1066.42a5.951,5.951,0,0,1,2.465,2.96,3.819,3.819,0,0,1-3.271-.463,5.948,5.948,0,0,1-2.465-2.96A3.822,3.822,0,0,1,562.049,1066.42Z" transform="translate(86.104 -485.879)" fill="#b7b7b7"/>
    <path id="Path_1809" data-name="Path 1809" d="M599.414,863.212a7.427,7.427,0,0,1,6.793-.2,7.9,7.9,0,0,1-3.806,5.811,7.428,7.428,0,0,1-6.793.2A7.894,7.894,0,0,1,599.414,863.212Z" transform="translate(53.47 -305.589)" fill="#b7b7b7"/>
    <path id="Path_1810" data-name="Path 1810" d="M603.125,938.058a7.428,7.428,0,0,1,6.793-.2,7.9,7.9,0,0,1-3.806,5.811,7.427,7.427,0,0,1-6.793.2A7.9,7.9,0,0,1,603.125,938.058Z" transform="translate(50.181 -371.906)" fill="#b7b7b7"/>
    <path id="Path_1811" data-name="Path 1811" d="M609.77,1047.68a4.833,4.833,0,0,1,4.421-.127,5.139,5.139,0,0,1-2.477,3.782,4.835,4.835,0,0,1-4.421.127A5.138,5.138,0,0,1,609.77,1047.68Z" transform="translate(43.116 -469.32)" fill="#b7b7b7"/>
    <path id="Path_1745" data-name="Path 1745" d="M2007.361,668.277s-4.249,9.25-7.108,13.157-5.583,7.643-7.864,18.487-1.89,11.934-2.514,14.735-4.688,14.149-4.711,16.23-8.212,13.927-10.309,19.471-5.813,13.464-5.6,17.5l.933-.237a43.377,43.377,0,0,1,7.234-18.9c6.472-9.5,5.547-11.3,12.9-16.177s12.1-18.365,12.1-18.365,7.478-14.646,7.13-22.259S2011.181,677.431,2007.361,668.277Z" transform="translate(-1163.631 -133.684)" fill="#b7b7b7"/>
    <path id="Path_1746" data-name="Path 1746" d="M1958.059,543.442s-.247,6.076-2.207,9.685-3.648,5.8-4,9.707-1.587,13.973-7.052,18.888-6.163,19.642-10.323,24.1-4.7,7.657-3.935,15.3,3.378,18.23-2.657,32.051l-1.364-3.438s4.318-11.371,3.272-18.029-4.682-16.718-3.351-21.543-3.618-5.768-.638-13.065,1.756-9.833,5.813-16.143c0,0,.416-.3,1.483-5.634s9.667-15.124,13.63-18.463S1956.4,548.163,1958.059,543.442Z" transform="translate(-1124.277 -23.075)" fill="#b7b7b7"/>
    <path id="Path_1747" data-name="Path 1747" d="M1967.859,807.425s-4.746,8.125-4.813,13.355.5,9.484-1.9,16.646,2.365,11.689.991,15.644-1.48,8.636-1.438,12.186-5.436,15.3-6.27,21.248.232,5.969.232,5.969.908-7.854,2.169-10.452,5.093-11.551,5.989-15.015,3.322-5.688,5.416-11.555,5.07-10.808,4.842-19.133S1976.2,819.205,1967.859,807.425Z" transform="translate(-1150.219 -256.976)" fill="#b7b7b7"/>
    <path id="Path_1748" data-name="Path 1748" d="M1981,1195.832s2.214-10.312,11.546-11.342,14.815.816,21.407-6.719,10.423-19.49,12.529-21.548c0,0-3.313-1.7-8.82,3.445s-9.375,9.054-12.564,12.052-5.778,1.043-9.144,3.019c-2.821,1.656-6.469,6.443-8.076,8.95a11.314,11.314,0,0,1-1.851,2.218c-.647.6-1.417,1.328-1.911,1.866-.988,1.077-3.838,8.095-3.838,8.095Z" transform="translate(-1173.406 -565.787)" fill="#b7b7b7"/>
    <path id="Path_1749" data-name="Path 1749" d="M1813.47,1057.991s3.289-12.611,1.086-18.783-9.1-10.738-8.822-14.615,4.7-14.355,1.095-22.156c0,0-1.372,6.958-2.725,8.506s-10.641,7.79-8.994,16.034,10.675,10.171,12.9,12.6,5.225,2.424,5.244,4.038a62.313,62.313,0,0,1-.392,13.271Z" transform="translate(-1009.168 -429.766)" fill="#b7b7b7"/>
    <path id="Path_1750" data-name="Path 1750" d="M1958.119,876.762l4.621-13.31s2.714-10.705,4.288-19.633.832-36.394.832-36.394-4.746,8.125-4.813,13.355.5,9.484-1.9,16.646,2.365,11.689.991,15.644-1.48,8.636-1.438,12.186-5.436,15.3-6.27,21.248c-.457,3.259-.343,4.737-.147,5.408C1953.539,886.709,1958.119,876.762,1958.119,876.762Z" transform="translate(-1150.221 -256.976)" fill="#b7b7b7"/>
    <path id="Path_1751" data-name="Path 1751" d="M2004.064,1179.746c-4.122.823-7.808.543-12.7,4.185a40.923,40.923,0,0,0-7.771,7.531s-2.2,3.931-3.109,6c-.132.317-.208.506-.208.506l.722-.037s2.214-10.312,11.546-11.342,14.815.815,21.407-6.719,10.423-19.49,12.529-21.548a105.6,105.6,0,0,0-11.346,10.283C2010.8,1173.437,2008.186,1178.922,2004.064,1179.746Z" transform="translate(-1173.406 -567.888)" fill="#b7b7b7"/>
    <path id="Path_1752" data-name="Path 1752" d="M1804.1,1010.945c-1.353,1.548-10.641,7.79-8.994,16.034s10.675,10.171,12.9,12.6,5.225,2.424,5.244,4.038a62.313,62.313,0,0,1-.392,13.271l.267.484a73.893,73.893,0,0,0,1.384-8.314c.359-4.243-.329-6-1.693-9.437s-9.839-10.439-11.963-14.12,4.095-9.834,5.475-12.805.5-10.254.5-10.254S1805.457,1009.4,1804.1,1010.945Z" transform="translate(-1009.168 -429.766)" fill="#b7b7b7"/>
    <path id="Path_1753" data-name="Path 1753" d="M1945.521,1384.868l1.451-3.506a4.953,4.953,0,0,1,6.434-2.751h0c6.117,2.671,8.777,10.1,5.94,16.6l-2.074,4.751a5.965,5.965,0,0,0,.633,5.986,5.268,5.268,0,0,1,.523,5.272l-1.093,2.5a9.961,9.961,0,0,1-6.219,5.549,6.039,6.039,0,0,0-3.755,3.392l-1.548,3.546a7.529,7.529,0,0,1-9.782,4.182l-2.106-.919a7.53,7.53,0,0,1-3.584-10.017h0c2.768-4.688,2.547-8.187,1.566-10.56a14.2,14.2,0,0,1,.134-11.078l.219-.5a14.1,14.1,0,0,1,8.613-7.794C1942.545,1388.994,1944.287,1387.694,1945.521,1384.868Z" transform="translate(-1128.555 -762.735)" fill="#b7b7b7"/>
    <path id="Path_1754" data-name="Path 1754" d="M1839.656,1579.832c2.968-3.849,19.247-24.469,29.862-27.905,11.717-3.793.674,11.272.674,11.272s20.784-22.728,28.412-20.679c6.992,1.878,0,15.966,0,15.966s7.875-7.8,17.424-7.8c9.294,0-6.493,27.667-7.345,29.147Z" transform="translate(-1048.812 -908.187)" fill="#b7b7b7"/>
    <path id="Path_1755" data-name="Path 1755" d="M2243.023,1419.468a136.96,136.96,0,0,0-18.233,43.648l-.582-.156a137.838,137.838,0,0,1,18.163-43.28c1.971-3.079,4.1-6.731,7.787-7.933.072-.024.1.085.031.11C2246.819,1413.127,2244.867,1416.588,2243.023,1419.468Z" transform="translate(-1389.541 -792.428)" fill="#b7b7b7"/>
    <path id="Path_1756" data-name="Path 1756" d="M2247.282,1593.447a171.181,171.181,0,0,1,34.744-35.2c.137-.1.322.135.184.241A170.972,170.972,0,0,0,2248,1593.641Z" transform="translate(-1409.985 -922.211)" fill="#b7b7b7"/>
    <path id="Path_1757" data-name="Path 1757" d="M2391.141,1386.417a6.042,6.042,0,0,1,1.3,2.261,4.664,4.664,0,0,1,.042,2.307,5.025,5.025,0,0,0,1.29-2.233,4.932,4.932,0,0,0-.393-3.787c-.9-1.382-2.462-1.522-2.766-.852C2390.292,1384.78,2390.7,1385.686,2391.141,1386.417Z" transform="translate(-1536.881 -767.603)" fill="#b7b7b7"/>
    <path id="Path_1758" data-name="Path 1758" d="M2378.637,1489.072a6.038,6.038,0,0,0-2.235-1.346,4.66,4.66,0,0,0-2.307-.087,5.027,5.027,0,0,1,2.258-1.246,4.927,4.927,0,0,1,3.778.468c1.364.923,1.473,2.491.8,2.782C2380.257,1489.953,2379.36,1489.526,2378.637,1489.072Z" transform="translate(-1522.346 -858.419)" fill="#b7b7b7"/>
    <path id="Path_1759" data-name="Path 1759" d="M2351.732,1534.6a6.032,6.032,0,0,0-2.235-1.346,4.662,4.662,0,0,0-2.306-.087,5.032,5.032,0,0,1,2.258-1.246,4.927,4.927,0,0,1,3.778.468c1.364.923,1.473,2.491.8,2.782C2353.353,1535.484,2352.456,1535.056,2351.732,1534.6Z" transform="translate(-1498.508 -898.761)" fill="#b7b7b7"/>
    <path id="Path_1762" data-name="Path 1762" d="M2351.255,1437.739a6.034,6.034,0,0,1,1.642,2.028,4.664,4.664,0,0,1,.4,2.272,5.032,5.032,0,0,0,.922-2.408,4.928,4.928,0,0,0-.985-3.678c-1.1-1.223-2.671-1.115-2.865-.405C2350.159,1436.256,2350.707,1437.086,2351.255,1437.739Z" transform="translate(-1501.286 -813.053)" fill="#b7b7b7"/>
    <path id="Path_1763" data-name="Path 1763" d="M2307.75,1485.345a5.267,5.267,0,0,1,2.371,1.558,4.022,4.022,0,0,1,.8,2.362,6.669,6.669,0,0,0,.9-3.084c.094-1.627-.872-3.36-1.723-3.681-1.577-.891-3.593-.1-3.758.779C2306.15,1484.161,2306.959,1484.852,2307.75,1485.345Z" transform="translate(-1462.289 -854.775)" fill="#b7b7b7"/>
    <path id="Path_1766" data-name="Path 1766" d="M2444.239,1412.147a3.571,3.571,0,0,0-1.263-.894,2.768,2.768,0,0,0-1.361-.152,2.98,2.98,0,0,1,1.39-.639,2.925,2.925,0,0,1,2.215.442c.767.606.763,1.538.35,1.681S2444.647,1412.447,2444.239,1412.147Z" transform="translate(-1582.172 -791.246)" fill="#b7b7b7"/>
    <path id="Path_1767" data-name="Path 1767" d="M2443.682,1381.722a3.567,3.567,0,0,1-.062,1.547,2.768,2.768,0,0,1-.71,1.17,2.983,2.983,0,0,0,1.355-.711,2.924,2.924,0,0,0,1-2.024c-.011-.977-.753-1.543-1.117-1.3S2443.693,1381.215,2443.682,1381.722Z" transform="translate(-1583.318 -764.608)" fill="#b7b7b7"/>
    <path id="Path_1769" data-name="Path 1769" d="M2545.059,1530.568a3.581,3.581,0,0,1,.063,1.546,2.752,2.752,0,0,1-.611,1.225,2.981,2.981,0,0,0,1.292-.82,2.925,2.925,0,0,0,.832-2.1c-.091-.973-.876-1.476-1.22-1.208S2545.028,1530.063,2545.059,1530.568Z" transform="translate(-1673.341 -896.447)" fill="#b7b7b7"/>
    <path id="Path_1812" data-name="Path 1812" d="M1927.612,1395.458a2.753,2.753,0,0,1,1.332.426,23.419,23.419,0,0,0,2.437-1.1s6.646-3.28,7-3.471l4.8-6.035,3.7,1.7s-5.4,6.417-5.737,6.7-9.871,3.625-10.7,3.947c0,0-.835.764-1.376,1.225a5.723,5.723,0,0,1-1.437.749,6.039,6.039,0,0,1-1.465.514c-.726.158-.121-.335-.121-.335s1.285-.542,1.222-.641c-.049-.075-.732.264-1.534.447-.205.047-.409.093-.6.134-.491.106-.708-.176-.214-.371a4.854,4.854,0,0,1,.688-.223,4,4,0,0,0,.632-.248,5.18,5.18,0,0,0,.649-.26c-.02-.017.034-.1-.186-.059a12.276,12.276,0,0,1-1.2.335c-.225.025-.691.108-.691.108s-.825.079-.83-.037c-.012-.252.5-.394.807-.387a3.237,3.237,0,0,1,.69-.172s.956-.378.9-.519a6.725,6.725,0,0,0-1.216.073c-.649.044-1.12.044-1.154-.082-.055-.2.462-.276.462-.276s.456-.066.6-.1c.175-.04.689-.2.689-.2s1.759-.646,1.7-.776-.354-.4-.479-.4-.345.125-.469.125-.391-.023-.409-.179.67-.479.67-.479A1.945,1.945,0,0,1,1927.612,1395.458Z" transform="translate(-1123.527 -768.975)" fill="#f8a492"/>
    <path id="Path_1813" data-name="Path 1813" d="M2063.135,1365.037s1.2,1.088,1.695,1.445c.414.3,2.43,1.269,2.43,1.269s2.006-3.072,2.884-4.613c1.064-1.869,1.8-4.649,1.55-4.724a3.684,3.684,0,0,0-2.575.071C2066.015,1359.91,2063.135,1365.037,2063.135,1365.037Z" transform="translate(-1246.823 -745)" fill="#1c1b19"/>
    <path id="Path_1814" data-name="Path 1814" d="M1955.82,1484.8a1.15,1.15,0,0,1-1.313-.5C1954.453,1484.874,1955.33,1485.16,1955.82,1484.8Z" transform="translate(-1150.571 -856.712)" fill="#fe875e"/>
    <path id="Path_1815" data-name="Path 1815" d="M517.525,1241.516a10.874,10.874,0,0,0-.986-5.222,4.4,4.4,0,0,0-3.93-2.249c-4.914-.007-5.539,6.514-8.667,9.029-.956.769-2.024,1.394-2.929,2.223-3.34,3.06-1.835,8.725,1.231,11.408,2.128,1.862,5.472,2.92,8.095,1.464a8.268,8.268,0,0,0,3.149-3.407,46.687,46.687,0,0,0,2.476-6.322A23.689,23.689,0,0,0,517.525,1241.516Z" transform="translate(138.961 -634.981)" fill="#13375b"/>
    <path id="Path_1816" data-name="Path 1816" d="M639.972,1339.994c-1.535-4.656-3.561-4.583-3.561-4.583l1.637,9.914c.948-.259,2.182-.836,3.129-1.1A42.619,42.619,0,0,0,639.972,1339.994Z" transform="translate(17.317 -724.794)" fill="#1c1b19"/>
    <path id="Path_1817" data-name="Path 1817" d="M660.458,1423.093l-5.611-4.281s-.564-3.993-1.32-7.537c-.947.267-1.8,1.01-2.749,1.269l1.427,7.936,7.355,3.794,2.077,2.67.472-2.741Z" transform="translate(4.588 -792.013)" fill="#f48c7f"/>
    <path id="Path_1818" data-name="Path 1818" d="M716.913,1054.531a9.665,9.665,0,0,1,4.791,1.262,5.089,5.089,0,0,0,.579.279,6.6,6.6,0,0,0,9.03-6.17v-22.925H708.388a6.6,6.6,0,0,1-6.17-9.03,5.1,5.1,0,0,1,.279-.579,9.72,9.72,0,1,0-16.983-.12,5.344,5.344,0,0,1,.276.589,6.718,6.718,0,0,1-6.3,9.141H656.765v52.237a22.311,22.311,0,0,0,22.311,22.311h52.236v-22.849a6.646,6.646,0,0,0-9.072-6.219,5.152,5.152,0,0,0-.581.277,9.72,9.72,0,1,1-4.746-18.2Z" transform="translate(-0.718 -430.137)" fill="#abadac"/>
    <path id="Path_1819" data-name="Path 1819" d="M1210.859,1222.872a9.666,9.666,0,0,1,1.485-4.727,5.057,5.057,0,0,0,.306-.565,6.6,6.6,0,0,0-5.742-9.308l-22.9-1.071-1.071,22.9a6.6,6.6,0,0,1-9.308,5.742,5.035,5.035,0,0,1-.565-.306,9.72,9.72,0,1,0-.914,16.958,5.415,5.415,0,0,1,.6-.248,6.717,6.717,0,0,1,8.837,6.717l-1.061,22.7,52.18,2.439a22.311,22.311,0,0,0,23.329-21.245l2.439-52.18-22.824-1.067a6.646,6.646,0,0,0-6.636,8.772,5.144,5.144,0,0,0,.25.594,9.72,9.72,0,1,1-18.4,3.891Z" transform="translate(-444.978 -611.195)" fill="#ffde59"/>
    <path id="Path_1820" data-name="Path 1820" d="M680.714,550.475a9.667,9.667,0,0,1-1.02,4.848,5.053,5.053,0,0,0-.25.592,6.6,6.6,0,0,0,6.616,8.709l22.9-1.151-1.151-22.9a6.6,6.6,0,0,1,8.709-6.616,5.085,5.085,0,0,1,.592.25,9.72,9.72,0,1,0-.732-16.967,5.342,5.342,0,0,1-.575.305,6.717,6.717,0,0,1-9.445-5.83l-1.141-22.7-52.171,2.623a22.311,22.311,0,0,0-21.163,23.4l2.623,52.171,22.82-1.148a6.646,6.646,0,0,0,5.756-9.373,5.12,5.12,0,0,0-.306-.567,9.72,9.72,0,1,1,17.942-5.654Z" transform="translate(21.357 25.146)" fill="#ffde59"/>
    <path id="Path_1821" data-name="Path 1821" d="M1359.912,552.03a9.665,9.665,0,0,1-4.791-1.262,5.082,5.082,0,0,0-.579-.279,6.6,6.6,0,0,0-9.03,6.17v22.925h22.925a6.6,6.6,0,0,1,6.17,9.03,5.086,5.086,0,0,1-.279.579,9.72,9.72,0,1,0,16.983.121,5.391,5.391,0,0,1-.276-.589,6.718,6.718,0,0,1,6.3-9.141h22.728V527.347a22.312,22.312,0,0,0-22.312-22.311h-52.236v22.849a6.646,6.646,0,0,0,9.072,6.219,5.231,5.231,0,0,0,.582-.277,9.72,9.72,0,1,1,4.746,18.2Z" transform="translate(-610.978 10.954)" fill="#abadac"/>
    <path id="Path_1824" data-name="Path 1824" d="M613.766,1492.9a26.579,26.579,0,0,1,.266,7.295c-.508,2.889-2.949,29.665-2.949,29.665l-2.713.154s-.568-11.185-.467-12.741a24.154,24.154,0,0,1,.907-4.158l-.27-9.031,3.423-11.864Z" transform="translate(42.586 -863.733)" fill="#ffde59"/>
    <path id="Path_1825" data-name="Path 1825" d="M530.449,1482.279a20.163,20.163,0,0,0-2.644,5.889c-.508,2.666.373,10.861-.6,14.356-.53,1.891-2.537,4.813-2.842,7.257s-1.5,8.847-1.5,8.847l2.711.538,6.3-15.99,4.943-14.453,1.266-7.444Z" transform="translate(117.932 -854.04)" fill="#ffde59"/>
    <path id="Path_1826" data-name="Path 1826" d="M572.3,1329.108s-2.828-.181-3.947,1.042,2.482,10.891,2.685,12.446-1.037,5.692-1.037,5.692,6.643,1.34,8.542.08c0,0,.2-11.185,0-12.3A32.933,32.933,0,0,0,576.24,1330C575.833,1329.552,572.3,1329.108,572.3,1329.108Z" transform="translate(77.807 -719.201)" fill="#1c1b19"/>
    <path id="Path_1827" data-name="Path 1827" d="M604.857,1295.455s-.015.083-.041.226a21.556,21.556,0,0,1-.94,3.563c-.4.751,1.357,3.146,3.045,2.854.5-.087-.425-2.2-.38-2.425.085-.428.2-1.013.319-1.613l.2-1c.18-.916.328-1.665.328-1.665Z" transform="translate(46.194 -689.336)" fill="#f7a491"/>
    <path id="Path_1828" data-name="Path 1828" d="M611.967,1295.681c.026-.142.041-.226.041-.226l2.529-.063s-.147.749-.328,1.665l-.2,1a2.371,2.371,0,0,1-1.208-.607,3.2,3.2,0,0,1-.914-1.364C611.921,1295.924,611.947,1295.787,611.967,1295.681Z" transform="translate(39.043 -689.336)" fill="#f47458"/>
    <path id="Path_1829" data-name="Path 1829" d="M606.3,1245.336a2.277,2.277,0,0,0-1.939.831c-.747.968-1.552,3.964.3,5.592s3.69-.215,3.962-2.169S609.006,1245.266,606.3,1245.336Z" transform="translate(46.45 -644.978)" fill="#f7a491"/>
    <path id="Path_1830" data-name="Path 1830" d="M645.182,1274.158c-.222.431-.594.671-.831.534s-.25-.6-.028-1.03.593-.671.83-.534S645.4,1273.726,645.182,1274.158Z" transform="translate(10.446 -669.575)" fill="#f7a491"/>
    <path id="Path_1831" data-name="Path 1831" d="M597.769,1242.343s-1.593,2.848-2.732,2.98-1.289,1.645-1.289,1.645.407-3.487,1.535-4.16A4.181,4.181,0,0,1,597.769,1242.343Z" transform="translate(55.118 -642.306)" fill="#13375b"/>
    <path id="Path_1834" data-name="Path 1834" d="M598.413,1268.76c.092.505-.094.97-.416,1.036s-.659-.289-.752-.8.094-.97.416-1.036S598.32,1268.254,598.413,1268.76Z" transform="translate(52.041 -665.027)" fill="#f7a491"/>
    <path id="Path_1835" data-name="Path 1835" d="M624,1290.381l1.438.065a.629.629,0,0,1-.691.535C623.978,1290.968,624,1290.381,624,1290.381Z" transform="translate(28.311 -684.896)" fill="#fff"/>
    <path id="Path_1836" data-name="Path 1836" d="M1686.637,284.255c.179.007.67.172,1.387,1.528a50.826,50.826,0,0,1,2.256,6.963l-4,1.489-.514-1.092-.846-8.406S1686.587,284.253,1686.637,284.255Z" transform="translate(-911.71 206.576)" fill="#1c1b19"/>
    <path id="Path_1837" data-name="Path 1837" d="M1598.473,277.639a24.414,24.414,0,0,1,5.284.754s.964,8.288-.868,14.586c-.41,1.41.339,5.844.339,5.844l-11.845-.156s1.4-10.72.875-12.452-.541-7.767-.541-7.767.081-.013,2.661-.459A26.784,26.784,0,0,1,1598.473,277.639Z" transform="translate(-828.83 212.438)" fill="#1c1b19"/>
    <path id="Path_1838" data-name="Path 1838" d="M1615.308,598.54a15.955,15.955,0,0,0,.744,3.862c.482.837-.025,2.261-.05,2.457s-1.014.475-2.587.307-1.547-.53-1.42-1.117.963-1.34,1.014-1.9a14.565,14.565,0,0,0-.482-2.568Z" transform="translate(-847.045 -71.894)" fill="#f7a491"/>
    <path id="Path_1839" data-name="Path 1839" d="M1600.32,440.2s8.176-.454,10,.652-1.3,6.533-1.3,6.533-5.689-.262-16.833.381c-2.639.152-2.866-6.881-2.373-7.463S1600.32,440.2,1600.32,440.2Z" transform="translate(-827.259 68.569)" fill="#ffde59"/>
    <path id="Path_1840" data-name="Path 1840" d="M1612.469,636.843c-1.619-.173-1.418-.968-1.288-1.572a5.354,5.354,0,0,1,.823-1.245,2.7,2.7,0,0,0,1.083.526,4.051,4.051,0,0,0,2.369-.478,7.822,7.822,0,0,1,.217,2.088A4.7,4.7,0,0,1,1612.469,636.843Z" transform="translate(-846.297 -103.337)" fill="#1c1b19"/>
    <path id="Path_1841" data-name="Path 1841" d="M1582.814,446.677c.326,2.472,1.944,14.778,1.944,14.778l-3.753.465s-4.615-16.062-4.378-18.518,1.964-2.664,1.964-2.664S1581.949,440.133,1582.814,446.677Z" transform="translate(-815.748 67.938)" fill="#ffde59"/>
    <path id="Path_1842" data-name="Path 1842" d="M1578.816,292.735c1.107-.415,1.649,9.563,1.8,13.67a48.237,48.237,0,0,0,6.231-.062c.4-.03,1.323-.368,1.721-.42a3.989,3.989,0,0,1,.978-.046,18.478,18.478,0,0,1,2.293,1.032c.217.227.8.8.7,1.049s-1.127-.691-1.127-.691l-.5-.282c.626.611,1.819,1.416,1.648,1.71s-1.245-.531-2.012-1.088c.658.595,1.476,1.658,1.287,1.824-.169.149-1.1-1.083-2.094-1.437-.368-.131-.735.233-1.025.277a2.079,2.079,0,0,1-.751.042l-1.077-.305c-.366.033-.376.25-.746.329-.43.092-1.135.188-1.683.322-3.152.77-4.2,1.128-5.169,1.127C1576.368,309.782,1576.2,293.717,1578.816,292.735Z" transform="translate(-816.059 199.073)" fill="#f7a491"/>
    <path id="Path_1843" data-name="Path 1843" d="M1574.111,294.853c-.208-4.207-.177-9.392,2.181-10.277.931-.349,2.571,1.75,2.276,10.362A17.723,17.723,0,0,1,1574.111,294.853Z" transform="translate(-813.456 206.323)" fill="#1c1b19"/>
    <path id="Path_1844" data-name="Path 1844" d="M1714.916,621.241a2.045,2.045,0,0,0,.259,1.744c.587.694,3.023,1.376,3.343,1.752a1.055,1.055,0,0,1,.3.7l-6.838-.188.075-2.065.315-1.484Z" transform="translate(-935.68 -92.009)" fill="#f7a491"/>
    <path id="Path_1845" data-name="Path 1845" d="M1712.624,638.362s-1.757.711-2.606.29-.823-.537-1.069-.38-.333,2.093-.333,2.093l7.689.226c.535-.012.806-.406.371-.744a6.212,6.212,0,0,0-.838-.5A24.036,24.036,0,0,0,1712.624,638.362Z" transform="translate(-932.704 -107.039)" fill="#1c1b19"/>
    <path id="Path_1846" data-name="Path 1846" d="M1715.683,443.442c.528-1.112,1.73-2.56,3.846-1.688,2.017.832,2.558,2.876,1.922,4.97s-4.827,14.4-4.973,16.093l-3.345.022s.608-9.745.757-12.1A22.794,22.794,0,0,1,1715.683,443.442Z" transform="translate(-936.706 67.262)" fill="#ffde59"/>
    <path id="Path_1847" data-name="Path 1847" d="M1613.835,359.177h-11.183a.729.729,0,0,0-.675.454l-3.443,8.427h-6.165a.313.313,0,0,0-.312.313h0a.312.312,0,0,0,.312.313h17.547a1.224,1.224,0,0,0,1.117-.726l3.467-7.75A.731.731,0,0,0,1613.835,359.177Z" transform="translate(-829.427 140.192)"/>
    <path id="Path_1848" data-name="Path 1848" d="M1720.911,395.893a.616.616,0,1,1-.461-.805A.658.658,0,0,1,1720.911,395.893Z" transform="translate(-942.524 108.382)" fill="#fff"/>
    <path id="Path_1849" data-name="Path 1849" d="M1628.519,182.142a8.526,8.526,0,0,1-.99-.4,4.962,4.962,0,0,0-1.128-.425,2.72,2.72,0,0,0-2.289.61c-.738.8-2.048.145-1.784,4.335.3,4.744,2.936,4.223,3,4.143s2.352-3.035,2.352-3.035.8,1.75.8,1.686S1632.568,183.505,1628.519,182.142Z" transform="translate(-856.219 297.812)" fill="#0e2e35"/>
    <path id="Path_1850" data-name="Path 1850" d="M1638.281,243.671l.227,1.695s.51,2.442-.146,2.913-2.791-2.982-2.791-2.982L1635.8,241Z" transform="translate(-867.984 244.901)" fill="#f7a491"/>
    <path id="Path_1851" data-name="Path 1851" d="M1636.911,242.393a4.865,4.865,0,0,0,2.75,2.715l-.193-1.437-2.483-2.67Z" transform="translate(-869.17 244.901)" fill="#f47458"/>
    <path id="Path_1852" data-name="Path 1852" d="M1635.879,199.761a2.26,2.26,0,0,1,2.6,2.286,17.2,17.2,0,0,1-.19,2.174c-.3,1.957-1.637,3.68-2.52,3.526a4.242,4.242,0,0,1-2.713-4.626A3.743,3.743,0,0,1,1635.879,199.761Z" transform="translate(-865.716 281.466)" fill="#f7a491"/>
    <path id="Path_1853" data-name="Path 1853" d="M1628.805,225.4a.658.658,0,1,1-.5-.89A.728.728,0,0,1,1628.805,225.4Z" transform="translate(-860.85 259.517)" fill="#f7a491"/>
    <path id="Path_1854" data-name="Path 1854" d="M1631.781,197.515s1.067.265,1.463-.421a3.223,3.223,0,0,1,3.613-1.553c1.8.614-1.584-1.493-1.728-1.493l-1.872-.012s-1.333,1.1-1.38,1.216-.432,1.433-.432,1.433Z" transform="translate(-864.327 286.515)" fill="#0e2e35"/>
    <path id="Path_1855" data-name="Path 1855" d="M1651.479,249.707l1.942.371a.864.864,0,0,1-1.044.593C1651.33,250.5,1651.479,249.707,1651.479,249.707Z" transform="translate(-882.072 237.187)" fill="#fff"/>
    <path id="Path_1856" data-name="Path 1856" d="M1363.265,1427.333a2.044,2.044,0,0,0,.211.512,19.477,19.477,0,0,0,2.022,2.69l1.093-2.462s-.178-.773-.487-1.879A6.32,6.32,0,0,0,1363.265,1427.333Z" transform="translate(-626.708 -805.232)" fill="#f8a492"/>
    <path id="Path_1857" data-name="Path 1857" d="M1349.683,1350.495s-6.1,2.625-6.293,2.575a16.2,16.2,0,0,1-2.526-7.742c-.012-1.726,1.78-3.8,3.78-3.391,1.007.207.991.486,2.48,2.651A24.938,24.938,0,0,1,1349.683,1350.495Z" transform="translate(-606.859 -730.531)" fill="#1c1b19"/>
    <path id="Path_1862" data-name="Path 1862" d="M1388.651,1301.665l4.342-6.082c.018-.053.057-.162.118-.328.218-.6.673-1.859,1.07-3.109l0-.013c.125-.437.389-1.2.644-1.936.284-.819.636-1.836.648-2.009l-.059-.154a13.983,13.983,0,0,1-.45-1.825c-.049-.272-.1-.935.227-.935.509,0,.267.661.5,1.074a10.4,10.4,0,0,0,.353-1.378l.085-1.293c.016-.1-.087-.811.27-.811h.017c.321.023.314.782.447,2.064.042-.148.084-.326.116-.489a4.72,4.72,0,0,1,.109-.677c-.064-.358-.027-.921.354-.868.191.027.175.813.175.813,0,.108-.013.94-.007,1.1.039-.279.192-1.47.49-1.47.248,0,.268.32.262.574,0,.15-.158,1.44-.167,1.59.117-.2.255-1.332.371-1.332.483,0,.308,1.616.131,2.036a1.867,1.867,0,0,0-.055.226,3.965,3.965,0,0,1-.414,1.2c-.3.519-.722,1.343-.785,1.47-.047.258-.192,1.184-.375,2.349-.078.5-.164,1.045-.253,1.612h0c-.016.123-.107.513-.45,1.975a17.416,17.416,0,0,1-.54,2.124c-.2.361-4.885,6.718-5.084,6.989l-.118.159Z" transform="translate(-649.201 -678.238)" fill="#f7a491"/>
    <path id="Path_1863" data-name="Path 1863" d="M1451.9,1316.066s-.352-.9-.98-.9a.721.721,0,0,1,.651.112A1.24,1.24,0,0,1,1451.9,1316.066Z" transform="translate(-704.372 -706.824)" fill="#f47458"/>
    <path id="Path_1864" data-name="Path 1864" d="M1375.1,1306.458l-.559,3.535s2.13,1.71,3.371,1.349c1.042-.3.327-1.664.327-1.664a8.854,8.854,0,0,1-.385-2.876C1378.026,1305.812,1375.1,1306.458,1375.1,1306.458Z" transform="translate(-636.699 -698.957)" fill="#f7a491"/>
    <path id="Path_1865" data-name="Path 1865" d="M1379.013,1307.53a8.691,8.691,0,0,0,2.41.679,4.68,4.68,0,0,1-.057-1.4c.078-.457-.5-.564-1.151-.549-.848.073-1.6.205-1.6.205l-.108.679A1.747,1.747,0,0,0,1379.013,1307.53Z" transform="translate(-640.21 -698.96)" fill="#fe875e"/>
    <path id="Path_1866" data-name="Path 1866" d="M1355.818,1257.518c-.088,0,.842,3.949,2.281,4.628s3.584.325,3.987-.738c.446-1.176-1.179-5.2-3.2-5.717S1355.818,1257.518,1355.818,1257.518Z" transform="translate(-620.104 -654.094)" fill="#f7a491"/>
    <path id="Path_1867" data-name="Path 1867" d="M1343.839,1239a4.532,4.532,0,0,0-1.855,2.049,2.914,2.914,0,0,0-1.505,2.3,3.235,3.235,0,0,0,2.436,3.673,2.209,2.209,0,0,1,1.676,1.386l.165-1.034a4.093,4.093,0,0,0-.808-1.351c-.486-.451.23-1.107.293-1.643.048-.412-.255-1.214-.189-1.89a4.666,4.666,0,0,1,1.6-1.525C1347.01,1240.453,1345.313,1238.151,1343.839,1239Z" transform="translate(-606.46 -639.206)" fill="#13375b"/>
    <path id="Path_1868" data-name="Path 1868" d="M1367.074,1288.573c.188.456.111.909-.171,1.011s-.665-.184-.853-.64-.111-.909.172-1.011S1366.887,1288.116,1367.074,1288.573Z" transform="translate(-629.084 -682.708)" fill="#f7a491"/>
    <path id="Path_1869" data-name="Path 1869" d="M1422.869,1419.415l8.375-1.365s-.953-2.4-1.293-2.4-6.332,2.616-6.332,2.616l-.477.957Z" transform="translate(-679.52 -795.891)" fill="#f8a492"/>
    <path id="Path_1870" data-name="Path 1870" d="M1374.132,1496.095a27.586,27.586,0,0,0-.495,7.1c.34,3.062.367,13.941.367,13.941l-1.3,17.406,3.083.067s3.655-17.4,3.587-16.951,1.226-12.25,1.226-12.25l-4.358-9.7Z" transform="translate(-635.072 -866.828)" fill="#414141"/>
    <path id="Path_1871" data-name="Path 1871" d="M1390.793,1486.974s-.545,3.637.136,5.232,5.84,17.245,5.908,18.521,1.784,15.38,1.784,15.38l3.584-.1.775-15.68-1.624-19.708-1.576-4.983Z" transform="translate(-650.916 -857.899)" fill="#414141"/>
    <path id="Path_1872" data-name="Path 1872" d="M1374.542,1330.191a3.223,3.223,0,0,0,1.709.513,5.683,5.683,0,0,0,1.99-.828l-.162-.549s-2.133-.311-2.186-.277S1374.542,1330.191,1374.542,1330.191Z" transform="translate(-636.699 -719.156)" fill="#f7a491"/>
    <path id="Path_1873" data-name="Path 1873" d="M1457.212,1391.57s3.168,2.99,4.6,2.479,2.022-2.255-1.467-4.807C1457.22,1386.956,1457.212,1391.57,1457.212,1391.57Z" transform="translate(-709.949 -771.927)" fill="#f8a492"/>
    <path id="Path_1874" data-name="Path 1874" d="M1363.121,1348.485c-.47-2.56-3.881-10.527-4.153-11.995-.132-.714-1.972-.729-3.724-.636-1.851.1-3.689.332-3.689.332a5.628,5.628,0,0,0-2.359.945c-.721.675-.913,2.544.124,6.09.818,2.8,1.832,4.336,2.334,6.375.1.684.189,1.359.3,2.147.184,3.049,0,7.076,0,7.076s8.92,1.85,12.256-.957C1364.21,1357.863,1363.6,1351.108,1363.121,1348.485Z" transform="translate(-613.712 -725.151)" fill="#1c1b19"/>
    <path id="Path_1875" data-name="Path 1875" d="M1418.409,1343.775s-3.5,2.889-3.7,2.889c-.131,0-4.995-3.578-6.117-6.516a2.569,2.569,0,0,1,2.168-3.437c1.031,0,1.489.27,3.532,1.992A26.063,26.063,0,0,1,1418.409,1343.775Z" transform="translate(-666.725 -725.946)" fill="#1c1b19"/>
    <path id="Path_1876" data-name="Path 1876" d="M946.173,237.642c.573-1.38,1.157-2.763,2.645-3.462a3.33,3.33,0,0,1,3.533.452c3.032,2.28.39,4.792,3.842,9.115,1.072,1.344,2.37,2.428,3.013,4,.9,2.2-.172,3.262-1.889,4.317-8.215,5.05-12.522-5.318-12.367-7.69A38.166,38.166,0,0,1,946.173,237.642Z" transform="translate(-256.058 251.226)" fill="#13375b"/>
    <path id="Path_1877" data-name="Path 1877" d="M879.9,365.861c.347-.055,1.188-.657,1.485-.712.23-.042.728-.118.94-.15.26-.97,1.579-6.26,1.727-7.81.16-1.68,1.348-8.947,1.348-8.947l3.076.559s-1.277,5.59-1.63,8.3c-.3,2.328-2.858,7.563-3.183,8.115,0,.013,0,.026,0,.04-.049.822-.445.548-.445.548l-.643.164s-2.276.219-2.425.274S879.555,365.916,879.9,365.861Z" transform="translate(-198.313 149.88)" fill="#f7a491"/>
    <path id="Path_1878" data-name="Path 1878" d="M926.178,310.966c-2.174.737-3.411,6.648-3.411,6.648s3.411.952,4.285.453c0,0,.992-4.4,1.348-4.244Z" transform="translate(-236.407 182.908)" fill="#1c1b19"/>
    <path id="Path_1879" data-name="Path 1879" d="M759.766,592.471a23.253,23.253,0,0,0-1.042,3.649c-.015.1.124.575.111.677a6.166,6.166,0,0,1-4.9,2.336,27.659,27.659,0,0,0,2.129-1.853,32.2,32.2,0,0,0,.85-4.8C757.937,592.957,758.632,592.582,759.766,592.471Z" transform="translate(-86.814 -66.517)" fill="#f7a491"/>
    <path id="Path_1880" data-name="Path 1880" d="M797.762,420.212l2.938,8.276s-4.722.889-6.488,1.213-11.629.755-11.879.93c-.185.13-2.223,6.72-3.133,10.354a8.548,8.548,0,0,1-3.74-.37c.508-5.2,2.343-13.436,2.93-14.333C779.348,424.821,797.762,420.212,797.762,420.212Z" transform="translate(-105.887 86.112)" fill="#414141"/>
    <path id="Path_1881" data-name="Path 1881" d="M835.6,624.307a23.264,23.264,0,0,0-.339,3.78c0,.1.229.542.236.644a6.165,6.165,0,0,1-4.376,3.213,27.686,27.686,0,0,0,1.744-2.22,32.227,32.227,0,0,0-.064-4.871C833.9,625.127,834.508,624.628,835.6,624.307Z" transform="translate(-155.206 -94.725)" fill="#f7a491"/>
    <path id="Path_1882" data-name="Path 1882" d="M858.674,423.982l1.14,1.947a5.579,5.579,0,0,1-2.8,8.019l-.051.02c-1.673.649-11.281,2.92-11.494,3.139-.158.163-.924,7.018-1.138,10.758a8.547,8.547,0,0,1-3.743.338c-.475-5.2-.216-13.637.193-14.628C841.449,431.96,858.674,423.982,858.674,423.982Z" transform="translate(-163.369 82.771)" fill="#414141"/>
    <path id="Path_1883" data-name="Path 1883" d="M826.622,657.715c.256-.282,1.2,1.273,1.43,1.6a.741.741,0,0,1,.157.713c-.083.154-5.036,3.068-6.244,3.275a.608.608,0,0,1-.361-.1c-.472-.418,1.7-3.5,2.676-3.909A4.682,4.682,0,0,0,826.622,657.715Z" transform="translate(-146.714 -124.296)" fill="#1c1b19"/>
    <path id="Path_1884" data-name="Path 1884" d="M747.952,624.82c.3-.23.935,1.474,1.1,1.844a.743.743,0,0,1,.021.73c-.111.136-5.521,2.07-6.747,2.047a.609.609,0,0,1-.337-.163c-.386-.5,2.327-3.122,3.361-3.338A4.685,4.685,0,0,0,747.952,624.82Z" transform="translate(-76.2 -95.161)" fill="#1c1b19"/>
    <path id="Path_1885" data-name="Path 1885" d="M937.751,309.844h0a.821.821,0,0,1-.219-.045,3.785,3.785,0,0,0-1.973.112c-.836.352-2.13,3.646-2.053,7.027.031.517.062.98.089,1.3.211,2.554.944,7.346.983,7.371,1,.642,7.01-1.846,7.424-2.392s.657-7.184.858-7.515l.395-5.773A45.476,45.476,0,0,0,937.751,309.844Z" transform="translate(-245.918 184.013)" fill="#1c1b19"/>
    <path id="Path_1886" data-name="Path 1886" d="M968.043,284.04a15.387,15.387,0,0,0-.31,2.793c.078.79-.3,3.336-1.967,3.344s-.317-3.237-.16-4.011A29.626,29.626,0,0,0,965.8,283Z" transform="translate(-273.774 207.691)" fill="#f7a491"/>
    <path id="Path_1887" data-name="Path 1887" d="M972.2,284.2c.026-.656.035-1.2.035-1.2l2.242,1.044s-.079.41-.159.931A1.958,1.958,0,0,1,972.2,284.2Z" transform="translate(-280.205 207.691)" fill="#f47458"/>
    <path id="Path_1888" data-name="Path 1888" d="M968.684,241.6a2.778,2.778,0,0,1,1.18,1.518c.316,1.039-.044,3.72-2.276,4.367s-3.2-1.476-2.739-3.135S966.308,240.591,968.684,241.6Z" transform="translate(-273.595 244.602)" fill="#f7a491"/>
    <path id="Path_1889" data-name="Path 1889" d="M963.216,255.5c.044.446.29.786.549.761s.434-.407.391-.853-.289-.786-.549-.761S963.173,255.051,963.216,255.5Z" transform="translate(-272.241 232.814)" fill="#f7a491"/>
    <path id="Path_1890" data-name="Path 1890" d="M997.073,242.471s.4,2.991,1.372,3.53.562,1.866.562,1.866.877-3.08.113-4.07A4.257,4.257,0,0,0,997.073,242.471Z" transform="translate(-302.246 243.598)" fill="#13375b"/>
    <path id="Path_1891" data-name="Path 1891" d="M1002.56,273.685c-.262.39-.261.849,0,1.026s.689,0,.951-.385.261-.849,0-1.026S1002.822,273.295,1002.56,273.685Z" transform="translate(-306.934 216.344)" fill="#f7a491"/>
    <path id="Path_1892" data-name="Path 1892" d="M975.45,278.677l1.573.4a.715.715,0,0,1-.886.444C975.287,279.329,975.45,278.677,975.45,278.677Z" transform="translate(-283.076 211.518)" fill="#fff"/>
    <path id="Path_1893" data-name="Path 1893" d="M1044.079,498.01l6.781-.341s-2.783,2-2.84,2-2.216-.852-2.31-.852S1044.079,498.01,1044.079,498.01Z" transform="translate(-343.895 17.481)" fill="#50bfa5"/>
    <path id="Path_1898" data-name="Path 1898" d="M2243.71,1499.478a28.953,28.953,0,0,1,.454,6.977c-.312,3.008-.337,13.7-.337,13.7l1.442,17.1-3.079.072s-3.356-17.092-3.293-16.654-1.125-12.035-1.125-12.035l4-9.528Z" transform="translate(-1401.56 -869.832)" fill="#414141"/>
    <path id="Path_1899" data-name="Path 1899" d="M2211.41,1479.915s3.474,3.659,2.181,7.656c-.519,1.605-5.361,16.943-5.423,18.2s-1.637,15.11-1.637,15.11l-3.29-.1-.711-15.405.94-20.757,2-3.5Z" transform="translate(-1370.332 -852.831)" fill="#414141"/>
    <path id="Path_1900" data-name="Path 1900" d="M2094.354,1337.642a30.514,30.514,0,0,1,3.614-3.075,11.761,11.761,0,0,1,2.077-1.467c.885-.3,2.4-1.119,4.593,2.2,1.57,2.378,11.47,14.691,13.1,15.106l-10.614,5.078c-.29-2.425-5.536-7.007-6.291-7.862C2099.141,1345.714,2093.277,1338.844,2094.354,1337.642Z" transform="translate(-1274.369 -722.468)" fill="#1c1b19"/>
    <path id="Path_1901" data-name="Path 1901" d="M2086.814,1330.128l3.306,1.935s.093,2.822-.988,3.555c-.906.615-1.6-.861-1.6-.861a10.08,10.08,0,0,0-2.164-2.235C2084.438,1331.993,2086.814,1330.128,2086.814,1330.128Z" transform="translate(-1266.333 -720.113)" fill="#f7a491"/>
    <path id="Path_1902" data-name="Path 1902" d="M2087.369,1331.37a6.917,6.917,0,0,1-.858,2.141,5.373,5.373,0,0,0-1.138-.988c-.431-.245-.157-.774.263-1.273.593-.618,1.178-1.123,1.178-1.123l.635.372A2.953,2.953,0,0,1,2087.369,1331.37Z" transform="translate(-1266.333 -720.113)" fill="#f47458"/>
    <path id="Path_1903" data-name="Path 1903" d="M2056.385,1286.439c.056-.069,2.773,3.315,2.439,4.9s-1.978,3.035-3.121,2.636c-1.262-.44-3.611-4.423-2.769-6.357S2056.385,1286.439,2056.385,1286.439Z" transform="translate(-1237.626 -681.275)" fill="#f7a491"/>
    <path id="Path_1904" data-name="Path 1904" d="M2047.334,1273.672a5.148,5.148,0,0,1,4.562-.092,3.916,3.916,0,0,1,1.624,4.695,2.306,2.306,0,0,0,.081,2.233l-.942-.55a4.483,4.483,0,0,1-.622-1.543c-.072-.684-1.07-.563-1.557-.874-.375-.239-.855-1.016-1.461-1.419a4.843,4.843,0,0,0-2.281.235C2045.455,1277.076,2045.637,1274.616,2047.334,1273.672Z" transform="translate(-1231.551 -669.575)" fill="#13375b"/>
    <path id="Path_1905" data-name="Path 1905" d="M2092.787,1310.081c-.009.508.231.923.536.928s.559-.4.567-.91-.231-.923-.536-.928S2092.8,1309.573,2092.787,1310.081Z" transform="translate(-1273.096 -701.544)" fill="#f7a491"/>
    <path id="Path_1906" data-name="Path 1906" d="M2068.362,1332.429l1.439-1.076a.8.8,0,0,1-.238,1.073C2068.808,1333.026,2068.362,1332.429,2068.362,1332.429Z" transform="translate(-1251.454 -721.199)" fill="#fff"/>
    <path id="Path_1907" data-name="Path 1907" d="M2004.507,1403.589a15.8,15.8,0,0,1,1.016-1.866,4.445,4.445,0,0,1,.737-.632c2.4-1.4,8.642-5.018,8.885-5.3.288-.332,4.55-7.414,4.55-7.414l-3.828-.868-3.741,6.606c-.312.248-6.251,4.637-6.251,4.637s-1.18.923-1.826,1.354a5.07,5.07,0,0,1-.92.41,5.911,5.911,0,0,0-1.146.57c-.156.138-.468.431-.654.61s-.41.382-.5.488a1.315,1.315,0,0,1-.337.214.221.221,0,0,0,.037.41.958.958,0,0,0,.58-.135c.429-.2.955-.747.983-.68s-.506,1.235-.558,1.373a15.731,15.731,0,0,0-.7,1.8c-.032.3.151.374.288.263.117-.1,1.1-1.913,1.1-1.913s.126-.232.175-.1-.843,1.785-.929,2.057-.018.494.233.4c.3-.115,1.147-1.938,1.147-1.938s.109-.227.185-.148-.707,1.473-.716,1.633a.209.209,0,0,0,.348.184,9.806,9.806,0,0,0,.986-1.791s.092-.108.12-.032-.553,1.311-.51,1.492a.146.146,0,0,0,.173.122C2003.747,1405.4,2004.146,1404.116,2004.507,1403.589Z" transform="translate(-1191.213 -770.956)" fill="#f8a492"/>
    <path id="Path_1908" data-name="Path 1908" d="M2122.5,1343.017s-1.247-.4-2.046-.763c-.536-.245-2.872-1.408-2.872-1.408a51.418,51.418,0,0,1,1.688-5.776c2.5-5.606,5.338-1.74,5.723-.839C2125.851,1336.248,2122.5,1343.017,2122.5,1343.017Z" transform="translate(-1295.062 -721.856)" fill="#1c1b19"/>
    <path id="Path_1909" data-name="Path 1909" d="M1396.612,1292.23l1.186-.887a.655.655,0,0,1-.2.885C1396.98,1292.722,1396.612,1292.23,1396.612,1292.23Z" transform="translate(-656.254 -685.748)" fill="#fff"/>
    <path id="Path_1911" data-name="Path 1911" d="M1019.619,363.528c-.028-.072-.091-.073-.155-.075a15.807,15.807,0,0,1-1.861-.139,1.334,1.334,0,0,1-.3-.076.78.78,0,0,0-.515-.019,1.042,1.042,0,0,1-.286.03c-.313,0-1.206-.305-1.664-.385a.27.27,0,0,1-.214-.2c-.451-1.785-1.419-5.788-1.545-7.105-.161-1.684-1.323-9.275-1.323-9.275l-3.111.867s1.28,5.6,1.634,8.321c.273,2.1,2.37,6.55,3.027,7.83a1.312,1.312,0,0,0,1.209,1,.386.386,0,0,1,.246.132,1.739,1.739,0,0,0,.393.341.922.922,0,0,1,.268.266c.132.193.25.395.367.6.077.134.159.176.274.145a.245.245,0,0,0,.18-.275,1.235,1.235,0,0,0-.186-.613.334.334,0,0,1,.025-.444,1.4,1.4,0,0,1,.234-.26.4.4,0,0,1,.318-.116,5.13,5.13,0,0,0,.678.126l.188.038.1.022c.016,0,.347.04.46.04.091,0,.239.006.364.012a2.026,2.026,0,0,0,.362-.054.44.44,0,0,0,.291-.117c.034-.03.066-.064.049-.116a.115.115,0,0,0-.1-.076,4.383,4.383,0,0,1-.457-.077c.115,0,.474-.008.589-.012a.539.539,0,0,0,.4-.174C1019.6,363.644,1019.647,363.6,1019.619,363.528Z" transform="translate(-312.5 151.616)" fill="#f7a491"/>
    <path id="Path_1912" data-name="Path 1912" d="M997.4,311.411c1.535-.279,2.8,6.59,2.8,6.59s-3.411.952-4.286.453c0,0-.992-4.4-1.348-4.244Z" transform="translate(-300.023 182.522)" fill="#1c1b19"/>
    <path id="Path_1913" data-name="Path 1913" d="M582.022,1361.958c.1-.291-1.314-.526-1.39-.821s1.788-.317,1.854-.576c.123-.477-2.042-.1-2-.323s2.256-.721,2.017-1.1-2.242.756-2.3.5,1.957-.891,1.921-1.46c-.019-.3-3.312,1.516-3.694,1.351s.411-1.595.107-1.807-1.177,2.905-1.386,3.009a47.167,47.167,0,0,1-6.24,3.046c-.192-.53-.608-1.245-.777-1.746-.888.632-1.547.949-2.464,1.525.664,1.664,1.609,3.487,2.072,3.7,1.409.636,6.856-3.882,7.943-4.655s1.711-.523,2.447-.768S581.92,1362.249,582.022,1361.958Z" transform="translate(78.226 -744.548)" fill="#f7a491"/>
    <path id="Path_1914" data-name="Path 1914" d="M557.972,1341.827s-1.219-5.385-1.008-6.947,2.068-3.017,3.355-2.478,1.87,8.057,1.87,8.057Z" transform="translate(87.732 -722.027)" fill="#1c1b19"/>
  </g>
</svg>
